<svg xmlns="http://www.w3.org/2000/svg" xmlns:xlink="http://www.w3.org/1999/xlink" width="320" zoomAndPan="magnify" viewBox="0 0 240 239.999995" height="320" preserveAspectRatio="xMidYMid meet" version="1.0"><rect x="-24" width="288" fill="#ffffff" y="-23.999999" height="287.999994" fill-opacity="1"/><rect x="-24" width="288" fill="#ffffff" y="-23.999999" height="287.999994" fill-opacity="1"/><path fill="#000000" d="M 353.144531 139.800781 C 353.144531 143.15625 353.144531 146.511719 352.867188 150.40625 C 351.820312 151.675781 351.023438 152.375 350.277344 153.125 C 283.386719 220.007812 216.5 286.890625 149.621094 353.785156 C 148.667969 354.738281 147.859375 355.835938 146.980469 356.863281 C 143.625 356.863281 140.273438 356.863281 136.460938 356.546875 C 137.269531 354.746094 138.4375 353.171875 139.808594 351.800781 C 167.144531 324.429688 194.511719 297.09375 221.824219 269.695312 C 223.234375 268.277344 224.171875 266.390625 225.363281 264.632812 C 225.394531 264.542969 225.78125 264.390625 226.125 264.410156 C 227.238281 263.664062 228.011719 262.898438 228.972656 261.914062 C 234.359375 257.042969 239.761719 252.597656 244.691406 247.679688 C 249.519531 242.871094 253.867188 237.582031 258.691406 232.398438 C 259.117188 231.960938 259.277344 231.632812 259.433594 231.351562 C 259.433594 231.40625 259.328125 231.394531 259.640625 231.304688 C 260.191406 230.640625 260.429688 230.074219 260.6875 229.398438 C 260.703125 229.289062 260.996094 229.046875 261.347656 229.09375 C 263.296875 227.785156 265.007812 226.539062 266.484375 225.0625 C 293.847656 197.746094 321.171875 170.390625 348.550781 143.089844 C 349.867188 141.777344 351.601562 140.886719 353.144531 139.800781 Z M 353.144531 139.800781 " fill-opacity="1" fill-rule="nonzero"/><path fill="#000000" d="M 90.671875 -108.136719 C 94.027344 -108.136719 97.378906 -108.136719 101.191406 -107.820312 C 100.703125 -106.339844 99.855469 -105.085938 98.800781 -104.03125 C 29.921875 -35.121094 -38.972656 33.773438 -107.898438 102.636719 C -109 103.738281 -110.527344 104.417969 -111.855469 105.289062 C -111.855469 101.9375 -111.855469 98.582031 -111.582031 94.6875 C -110.53125 93.417969 -109.738281 92.71875 -108.992188 91.96875 C -43.3125 26.296875 22.367188 -39.375 88.03125 -105.0625 C 88.984375 -106.015625 89.796875 -107.109375 90.671875 -108.136719 Z M 90.671875 -108.136719 " fill-opacity="1" fill-rule="nonzero"/><path fill="#000000" d="M 353.144531 157.964844 C 353.144531 161.320312 353.144531 164.675781 352.867188 168.570312 C 351.820312 169.839844 351.023438 170.539062 350.277344 171.285156 C 289.441406 232.113281 228.605469 292.945312 167.78125 353.789062 C 166.832031 354.742188 166.019531 355.835938 165.144531 356.863281 C 161.789062 356.863281 158.4375 356.863281 154.628906 356.542969 C 155.113281 355.066406 155.964844 353.8125 157.015625 352.757812 C 221.050781 288.691406 285.101562 224.636719 349.1875 160.617188 C 350.289062 159.515625 351.816406 158.839844 353.144531 157.964844 Z M 353.144531 157.964844 " fill-opacity="1" fill-rule="nonzero"/><path fill="#000000" d="M -111.855469 87.125 C -111.855469 83.773438 -111.855469 80.417969 -111.582031 76.519531 C -110.535156 75.253906 -109.742188 74.554688 -108.992188 73.808594 C -49.367188 14.191406 10.257812 -45.433594 69.871094 -105.066406 C 70.824219 -106.015625 71.632812 -107.109375 72.507812 -108.136719 C 75.863281 -108.136719 79.214844 -108.136719 83.027344 -107.820312 C 82.539062 -106.339844 81.691406 -105.085938 80.640625 -104.035156 C 17.8125 -41.175781 -45.027344 21.667969 -107.902344 84.476562 C -109.003906 85.578125 -110.53125 86.253906 -111.855469 87.125 Z M -111.855469 87.125 " fill-opacity="1" fill-rule="nonzero"/><path fill="#000000" d="M 183.308594 356.863281 C 179.953125 356.863281 176.601562 356.863281 172.792969 356.546875 C 173.28125 355.066406 174.128906 353.8125 175.179688 352.757812 C 233.160156 294.746094 291.15625 236.75 349.183594 178.785156 C 350.285156 177.683594 351.8125 177.003906 353.144531 176.128906 C 353.144531 179.484375 353.144531 182.839844 352.867188 186.734375 C 352.03125 187.789062 351.449219 188.273438 350.914062 188.808594 C 295.816406 243.902344 240.71875 299 185.628906 354.109375 C 184.785156 354.957031 184.078125 355.941406 183.308594 356.863281 Z M 183.308594 356.863281 " fill-opacity="1" fill-rule="nonzero"/><path fill="#000000" d="M 54.34375 -108.136719 C 57.699219 -108.136719 61.050781 -108.136719 64.863281 -107.820312 C 64.375 -106.339844 63.527344 -105.085938 62.472656 -104.035156 C 5.703125 -47.230469 -51.082031 9.554688 -107.898438 66.3125 C -109.003906 67.410156 -110.527344 68.089844 -111.855469 68.960938 C -111.855469 65.609375 -111.855469 62.253906 -111.582031 58.355469 C -110.746094 57.304688 -110.164062 56.820312 -109.632812 56.285156 C -55.742188 2.402344 -1.851562 -51.488281 52.023438 -105.386719 C 52.867188 -106.230469 53.574219 -107.21875 54.34375 -108.136719 Z M 54.34375 -108.136719 " fill-opacity="1" fill-rule="nonzero"/><path fill="#000000" d="M 201.472656 356.863281 C 198.117188 356.863281 194.765625 356.863281 190.957031 356.546875 C 191.441406 355.066406 192.289062 353.8125 193.339844 352.761719 C 245.269531 300.800781 297.210938 248.855469 349.1875 196.945312 C 350.289062 195.84375 351.816406 195.167969 353.144531 194.292969 C 353.144531 197.648438 353.144531 201.003906 352.867188 204.898438 C 352.03125 205.953125 351.449219 206.4375 350.917969 206.96875 C 301.871094 256.011719 252.824219 305.058594 203.792969 354.113281 C 202.945312 354.957031 202.242188 355.945312 201.472656 356.863281 Z M 201.472656 356.863281 " fill-opacity="1" fill-rule="nonzero"/><path fill="#000000" d="M -111.855469 50.796875 C -111.855469 47.445312 -111.855469 44.089844 -111.582031 40.191406 C -110.746094 39.140625 -110.164062 38.65625 -109.628906 38.121094 C -61.796875 -9.707031 -13.964844 -57.539062 33.855469 -105.382812 C 34.703125 -106.230469 35.410156 -107.214844 36.179688 -108.136719 C 39.535156 -108.136719 42.886719 -108.136719 46.699219 -107.820312 C 46.210938 -106.339844 45.359375 -105.085938 44.308594 -104.03125 C -6.40625 -53.285156 -57.136719 -2.554688 -107.898438 48.144531 C -109 49.246094 -110.527344 49.921875 -111.855469 50.796875 Z M -111.855469 50.796875 " fill-opacity="1" fill-rule="nonzero"/><path fill="#000000" d="M 353.144531 212.457031 C 353.144531 215.8125 353.144531 219.167969 352.867188 223.0625 C 352.03125 224.117188 351.449219 224.601562 350.917969 225.132812 C 307.925781 268.121094 264.933594 311.109375 221.957031 354.113281 C 221.113281 354.957031 220.40625 355.941406 219.636719 356.863281 C 216.28125 356.863281 212.929688 356.863281 209.121094 356.546875 C 209.394531 355.28125 210.027344 354.238281 210.867188 353.402344 C 257.058594 307.175781 303.265625 260.964844 349.503906 214.789062 C 350.5 213.796875 351.921875 213.226562 353.144531 212.457031 Z M 353.144531 212.457031 " fill-opacity="1" fill-rule="nonzero"/><path fill="#000000" d="M -111.855469 32.632812 C -111.855469 29.28125 -111.855469 25.925781 -111.582031 22.027344 C -110.746094 20.976562 -110.164062 20.492188 -109.632812 19.960938 C -67.851562 -21.816406 -26.070312 -63.597656 15.695312 -105.386719 C 16.542969 -106.234375 17.246094 -107.21875 18.015625 -108.136719 C 21.371094 -108.136719 24.722656 -108.136719 28.535156 -107.820312 C 28.261719 -106.554688 27.625 -105.515625 26.789062 -104.675781 C -18.195312 -59.664062 -63.191406 -14.660156 -108.222656 30.304688 C -109.21875 31.296875 -110.636719 31.867188 -111.855469 32.632812 Z M -111.855469 32.632812 " fill-opacity="1" fill-rule="nonzero"/><path fill="#000000" d="M 237.800781 356.863281 C 234.445312 356.863281 231.09375 356.863281 227.285156 356.546875 C 227.554688 355.28125 228.191406 354.242188 229.027344 353.40625 C 269.167969 313.234375 309.320312 273.074219 349.511719 232.949219 C 350.503906 231.957031 351.921875 231.390625 353.144531 230.621094 C 353.144531 233.976562 353.144531 237.332031 352.867188 241.226562 C 352.03125 242.277344 351.453125 242.761719 350.917969 243.296875 C 313.980469 280.230469 277.042969 317.167969 240.117188 354.117188 C 239.273438 354.960938 238.570312 355.945312 237.800781 356.863281 Z M 237.800781 356.863281 " fill-opacity="1" fill-rule="nonzero"/><path fill="#000000" d="M -0.148438 -108.136719 C 3.207031 -108.136719 6.558594 -108.136719 10.371094 -107.820312 C 10.09375 -106.554688 9.460938 -105.511719 8.621094 -104.675781 C -30.304688 -65.714844 -69.242188 -26.769531 -108.21875 12.136719 C -109.214844 13.132812 -110.636719 13.703125 -111.855469 14.46875 C -111.855469 11.117188 -111.855469 7.761719 -111.582031 3.863281 C -110.746094 2.8125 -110.164062 2.328125 -109.632812 1.792969 C -73.90625 -33.925781 -38.179688 -69.648438 -2.46875 -105.386719 C -1.625 -106.230469 -0.917969 -107.214844 -0.148438 -108.136719 Z M -0.148438 -108.136719 " fill-opacity="1" fill-rule="nonzero"/><path fill="#444440" d="M -111.855469 105.695312 C -110.527344 104.417969 -109 103.738281 -107.898438 102.636719 C -38.972656 33.773438 29.921875 -35.121094 98.800781 -104.03125 C 99.855469 -105.085938 100.703125 -106.339844 101.609375 -107.820312 C 103.722656 -108.136719 105.875 -108.136719 108.308594 -107.863281 C 81.886719 -80.835938 55.171875 -54.101562 28.523438 -27.300781 C 27.125 -25.894531 26.277344 -23.9375 25.175781 -22.136719 C 25.179688 -22.035156 24.800781 -21.910156 24.476562 -21.949219 C 23.652344 -21.636719 23.148438 -21.285156 22.515625 -20.644531 C 11.730469 -10.898438 0.785156 -1.742188 -9.46875 8.132812 C -15.128906 13.589844 -19.628906 20.25 -24.929688 26.53125 C -25.351562 27.300781 -25.492188 27.910156 -25.621094 28.628906 C -25.617188 28.734375 -25.957031 28.890625 -26.308594 28.863281 C -28.183594 30.019531 -29.855469 31.054688 -31.207031 32.402344 C -56.765625 57.902344 -82.285156 83.441406 -107.824219 108.960938 C -109.097656 110.230469 -110.511719 111.359375 -111.855469 112.554688 C -111.855469 110.402344 -111.855469 108.25 -111.855469 105.695312 Z M -111.855469 105.695312 " fill-opacity="1" fill-rule="nonzero"/><path fill="#444440" d="M 353.144531 157.5625 C 351.816406 158.839844 350.289062 159.515625 349.1875 160.617188 C 285.101562 224.636719 221.050781 288.691406 157.015625 352.757812 C 155.964844 353.8125 155.113281 355.066406 154.207031 356.542969 C 152.09375 356.863281 149.941406 356.863281 147.382812 356.863281 C 147.859375 355.835938 148.667969 354.738281 149.621094 353.785156 C 216.5 286.890625 283.386719 220.007812 350.277344 153.125 C 351.023438 152.375 351.820312 151.675781 352.867188 150.828125 C 353.144531 152.851562 353.144531 155.007812 353.144531 157.5625 Z M 353.144531 157.5625 " fill-opacity="1" fill-rule="nonzero"/><path fill="#444440" d="M -111.855469 87.53125 C -110.53125 86.253906 -109.003906 85.578125 -107.902344 84.476562 C -45.027344 21.667969 17.8125 -41.175781 80.640625 -104.035156 C 81.691406 -105.085938 82.539062 -106.339844 83.445312 -107.820312 C 85.558594 -108.136719 87.710938 -108.136719 90.269531 -108.136719 C 89.796875 -107.109375 88.984375 -106.015625 88.03125 -105.0625 C 22.367188 -39.375 -43.3125 26.296875 -108.992188 91.96875 C -109.738281 92.71875 -110.53125 93.417969 -111.582031 94.265625 C -111.855469 92.238281 -111.855469 90.085938 -111.855469 87.53125 Z M -111.855469 87.53125 " fill-opacity="1" fill-rule="nonzero"/><path fill="#444440" d="M 353.144531 175.726562 C 351.8125 177.003906 350.285156 177.683594 349.183594 178.785156 C 291.15625 236.75 233.160156 294.746094 175.179688 352.757812 C 174.128906 353.8125 173.28125 355.066406 172.371094 356.546875 C 170.257812 356.863281 168.105469 356.863281 165.546875 356.863281 C 166.019531 355.835938 166.832031 354.742188 167.78125 353.789062 C 228.605469 292.945312 289.441406 232.113281 350.277344 171.285156 C 351.023438 170.539062 351.820312 169.839844 352.867188 168.992188 C 353.144531 171.019531 353.144531 173.171875 353.144531 175.726562 Z M 353.144531 175.726562 " fill-opacity="1" fill-rule="nonzero"/><path fill="#444440" d="M -111.855469 69.367188 C -110.527344 68.089844 -109.003906 67.410156 -107.898438 66.3125 C -51.082031 9.554688 5.703125 -47.230469 62.472656 -104.035156 C 63.527344 -105.085938 64.375 -106.339844 65.28125 -107.820312 C 67.394531 -108.136719 69.546875 -108.136719 72.105469 -108.136719 C 71.632812 -107.109375 70.824219 -106.015625 69.871094 -105.066406 C 10.257812 -45.433594 -49.367188 14.191406 -108.992188 73.808594 C -109.742188 74.554688 -110.535156 75.253906 -111.582031 76.101562 C -111.855469 74.074219 -111.855469 71.921875 -111.855469 69.367188 Z M -111.855469 69.367188 " fill-opacity="1" fill-rule="nonzero"/><path fill="#444440" d="M 353.144531 193.890625 C 351.816406 195.167969 350.289062 195.84375 349.1875 196.945312 C 297.210938 248.855469 245.269531 300.800781 193.339844 352.761719 C 192.289062 353.8125 191.441406 355.066406 190.535156 356.546875 C 188.421875 356.863281 186.269531 356.863281 183.710938 356.863281 C 184.078125 355.941406 184.785156 354.957031 185.628906 354.109375 C 240.71875 299 295.816406 243.902344 350.914062 188.808594 C 351.449219 188.273438 352.03125 187.789062 352.867188 187.15625 C 353.144531 189.183594 353.144531 191.335938 353.144531 193.890625 Z M 353.144531 193.890625 " fill-opacity="1" fill-rule="nonzero"/><path fill="#444440" d="M -111.855469 51.203125 C -110.527344 49.921875 -109 49.246094 -107.898438 48.144531 C -57.136719 -2.554688 -6.40625 -53.285156 44.308594 -104.03125 C 45.359375 -105.085938 46.210938 -106.339844 47.117188 -107.820312 C 49.230469 -108.136719 51.382812 -108.136719 53.941406 -108.136719 C 53.574219 -107.21875 52.867188 -106.230469 52.023438 -105.386719 C -1.851562 -51.488281 -55.742188 2.402344 -109.632812 56.285156 C -110.164062 56.820312 -110.746094 57.304688 -111.582031 57.9375 C -111.855469 55.910156 -111.855469 53.757812 -111.855469 51.203125 Z M -111.855469 51.203125 " fill-opacity="1" fill-rule="nonzero"/><path fill="#444440" d="M 353.144531 212.054688 C 351.921875 213.226562 350.5 213.796875 349.503906 214.789062 C 303.265625 260.964844 257.058594 307.175781 210.867188 353.402344 C 210.027344 354.238281 209.394531 355.28125 208.699219 356.546875 C 206.585938 356.863281 204.433594 356.863281 201.875 356.863281 C 202.242188 355.945312 202.945312 354.957031 203.792969 354.113281 C 252.824219 305.058594 301.871094 256.011719 350.917969 206.96875 C 351.449219 206.4375 352.03125 205.953125 352.867188 205.320312 C 353.144531 207.347656 353.144531 209.5 353.144531 212.054688 Z M 353.144531 212.054688 " fill-opacity="1" fill-rule="nonzero"/><path fill="#444440" d="M -111.855469 33.039062 C -110.636719 31.867188 -109.21875 31.296875 -108.222656 30.304688 C -63.191406 -14.660156 -18.195312 -59.664062 26.789062 -104.675781 C 27.625 -105.515625 28.261719 -106.554688 28.953125 -107.820312 C 31.066406 -108.136719 33.21875 -108.136719 35.777344 -108.136719 C 35.410156 -107.214844 34.703125 -106.230469 33.855469 -105.382812 C -13.964844 -57.539062 -61.796875 -9.707031 -109.628906 38.121094 C -110.164062 38.65625 -110.746094 39.140625 -111.582031 39.773438 C -111.855469 37.746094 -111.855469 35.59375 -111.855469 33.039062 Z M -111.855469 33.039062 " fill-opacity="1" fill-rule="nonzero"/><path fill="#444440" d="M 353.144531 230.21875 C 351.921875 231.390625 350.503906 231.957031 349.511719 232.949219 C 309.320312 273.074219 269.167969 313.234375 229.027344 353.40625 C 228.191406 354.242188 227.554688 355.28125 226.863281 356.546875 C 224.75 356.863281 222.597656 356.863281 220.039062 356.863281 C 220.40625 355.941406 221.113281 354.957031 221.957031 354.113281 C 264.933594 311.109375 307.925781 268.121094 350.917969 225.132812 C 351.449219 224.601562 352.03125 224.117188 352.867188 223.484375 C 353.144531 225.511719 353.144531 227.664062 353.144531 230.21875 Z M 353.144531 230.21875 " fill-opacity="1" fill-rule="nonzero"/><path fill="#444440" d="M -111.855469 14.875 C -110.636719 13.703125 -109.214844 13.132812 -108.21875 12.136719 C -69.242188 -26.769531 -30.304688 -65.714844 8.621094 -104.675781 C 9.460938 -105.511719 10.09375 -106.554688 10.789062 -107.820312 C 12.902344 -108.136719 15.054688 -108.136719 17.613281 -108.136719 C 17.246094 -107.21875 16.542969 -106.234375 15.695312 -105.386719 C -26.070312 -63.597656 -67.851562 -21.816406 -109.632812 19.960938 C -110.164062 20.492188 -110.746094 20.976562 -111.582031 21.609375 C -111.855469 19.582031 -111.855469 17.429688 -111.855469 14.875 Z M -111.855469 14.875 " fill-opacity="1" fill-rule="nonzero"/><path fill="#fdb800" d="M 120.167969 298.820312 C 117.886719 298.84375 116.019531 298.808594 113.753906 298.828125 C 110.019531 298.832031 106.679688 298.777344 102.925781 298.667969 C 100.667969 298.347656 98.828125 298.085938 96.617188 297.808594 C 93.140625 297.207031 90.027344 296.617188 86.539062 296.082031 C 84.613281 295.789062 83.070312 295.441406 81.171875 295.085938 C 77.996094 294.1875 75.171875 293.296875 71.988281 292.453125 C 70.3125 291.921875 68.988281 291.347656 67.351562 290.742188 C 64.261719 289.761719 61.484375 288.8125 58.359375 287.882812 C 56.691406 287.292969 55.371094 286.683594 53.734375 286.121094 C 50.9375 284.917969 48.453125 283.660156 45.640625 282.433594 C 44.050781 281.824219 42.789062 281.1875 41.222656 280.554688 C 38.644531 279.117188 36.375 277.675781 33.796875 276.167969 C 32.476562 275.472656 31.460938 274.84375 30.144531 274.164062 C 27.640625 272.636719 25.4375 271.152344 22.914062 269.609375 C 21.5625 268.710938 20.535156 267.871094 19.226562 266.941406 C 16.738281 265.136719 14.53125 263.421875 12.042969 261.59375 C 10.746094 260.617188 9.730469 259.75 8.433594 258.8125 C 6.222656 256.992188 4.289062 255.238281 2.085938 253.355469 C 1.054688 252.375 0.292969 251.527344 -0.75 250.585938 C -2.9375 248.464844 -4.84375 246.4375 -7.023438 244.292969 C -8.027344 243.058594 -8.761719 241.945312 -9.75 240.707031 C -11.648438 238.550781 -13.292969 236.515625 -15.210938 234.359375 C -16.195312 233.359375 -16.902344 232.480469 -17.871094 231.480469 C -19.664062 229.191406 -21.195312 227.023438 -22.867188 224.566406 C -23.675781 223.121094 -24.351562 221.960938 -25.292969 220.664062 C -27.050781 218.351562 -28.539062 216.175781 -30.15625 213.710938 C -30.921875 211.976562 -31.558594 210.53125 -32.453125 208.941406 C -33.921875 206.582031 -35.128906 204.371094 -36.480469 201.863281 C -37.132812 200.234375 -37.640625 198.898438 -38.289062 197.28125 C -39.546875 194.488281 -40.664062 191.976562 -41.925781 189.164062 C -42.570312 187.519531 -43.070312 186.175781 -43.71875 184.554688 C -44.738281 181.496094 -45.605469 178.710938 -46.546875 175.585938 C -47.019531 173.835938 -47.417969 172.433594 -48.070312 170.824219 C -48.921875 167.566406 -49.519531 164.511719 -50.183594 161.082031 C -50.582031 158.996094 -50.914062 157.285156 -51.523438 155.390625 C -52.148438 152.15625 -52.496094 149.097656 -52.910156 145.65625 C -53.210938 143.664062 -53.445312 142.0625 -53.773438 140.117188 C -53.828125 136.132812 -53.789062 132.488281 -53.816406 128.429688 C -53.839844 126.144531 -53.796875 124.277344 -53.816406 122.015625 C -53.835938 117.972656 -53.792969 114.328125 -53.816406 110.265625 C -53.535156 107.664062 -53.191406 105.476562 -52.90625 102.917969 C -52.3125 98.300781 -51.660156 94.054688 -51 89.429688 C -50.34375 86.488281 -49.691406 83.929688 -48.929688 80.980469 C -47.128906 75.167969 -45.4375 69.742188 -43.734375 63.96875 C -42.511719 60.777344 -41.292969 57.933594 -40.09375 54.75 C -40.113281 54.402344 -40.125 54.417969 -39.835938 54.34375 C -39.367188 53.695312 -39.183594 53.121094 -39 52.546875 C -34.804688 44.847656 -30.613281 37.148438 -26.1875 29.167969 C -25.957031 28.890625 -25.617188 28.734375 -25.386719 28.414062 C -24.988281 27.519531 -24.820312 26.945312 -24.652344 26.367188 C -19.628906 20.25 -15.128906 13.589844 -9.46875 8.132812 C 0.785156 -1.742188 11.730469 -10.898438 22.828125 -20.65625 C 23.785156 -21.273438 24.292969 -21.59375 24.800781 -21.910156 C 24.800781 -21.910156 25.179688 -22.035156 25.175781 -22.136719 C 32.914062 -26.433594 40.65625 -30.625 48.910156 -35.121094 C 49.855469 -35.75 50.285156 -36.082031 50.714844 -36.410156 C 50.714844 -36.410156 50.699219 -36.40625 50.691406 -36.398438 C 53.640625 -37.402344 56.59375 -38.414062 59.722656 -39.71875 C 65.386719 -41.582031 70.875 -43.15625 76.613281 -44.894531 C 79.550781 -45.59375 82.242188 -46.128906 85.132812 -46.96875 C 89.574219 -47.890625 93.816406 -48.503906 98.445312 -49.183594 C 101.019531 -49.511719 103.210938 -49.773438 105.765625 -50.097656 C 109.777344 -50.117188 113.421875 -50.074219 117.484375 -50.09375 C 119.765625 -50.117188 121.632812 -50.082031 123.898438 -50.101562 C 127.9375 -50.117188 131.582031 -50.070312 135.640625 -50.085938 C 137.65625 -49.808594 139.253906 -49.472656 141.199219 -49.195312 C 144.601562 -48.898438 147.65625 -48.542969 151.097656 -48.132812 C 153.101562 -47.585938 154.714844 -47.09375 156.660156 -46.566406 C 160.050781 -45.875 163.113281 -45.222656 166.539062 -44.582031 C 168.230469 -44.046875 169.558594 -43.496094 171.203125 -42.921875 C 174.304688 -41.945312 177.089844 -40.996094 180.214844 -40.097656 C 181.878906 -39.550781 183.199219 -38.957031 184.828125 -38.359375 C 187.640625 -37.167969 190.136719 -35.984375 192.957031 -34.753906 C 194.597656 -34.101562 195.914062 -33.492188 197.546875 -32.894531 C 200.070312 -31.699219 202.28125 -30.496094 204.785156 -29.140625 C 206.414062 -28.175781 207.753906 -27.359375 209.398438 -26.554688 C 211.878906 -25.0625 214.058594 -23.5625 216.523438 -21.953125 C 217.867188 -21.003906 218.921875 -20.164062 220.273438 -19.304688 C 222.722656 -17.703125 224.878906 -16.125 227.347656 -14.519531 C 228.433594 -13.65625 229.207031 -12.820312 230.25 -11.875 C 232.445312 -10.027344 234.371094 -8.289062 236.582031 -6.421875 C 237.882812 -5.4375 238.90625 -4.585938 240.214844 -3.652344 C 242.40625 -1.554688 244.316406 0.464844 246.503906 2.585938 C 247.515625 3.574219 248.253906 4.453125 249.273438 5.417969 C 251.191406 7.542969 252.824219 9.578125 254.742188 11.742188 C 255.757812 12.996094 256.488281 14.117188 257.492188 15.359375 C 259.367188 17.792969 260.96875 20.101562 262.851562 22.535156 C 263.855469 23.796875 264.578125 24.933594 265.566406 26.1875 C 267.164062 28.640625 268.5 30.972656 270.117188 33.433594 C 270.945312 34.617188 271.488281 35.675781 272.21875 36.976562 C 273.6875 39.582031 274.976562 41.949219 276.546875 44.476562 C 277.324219 45.953125 277.8125 47.269531 278.519531 48.808594 C 279.882812 51.53125 281.023438 54.035156 282.3125 56.835938 C 282.898438 58.503906 283.339844 59.878906 283.988281 61.5 C 285.128906 64.660156 286.058594 67.570312 287.234375 70.6875 C 287.800781 72.183594 288.117188 73.476562 288.609375 75.058594 C 289.429688 78.285156 290.078125 81.214844 291.039062 84.332031 C 291.589844 86.097656 291.828125 87.683594 292.242188 89.574219 C 292.917969 92.976562 293.417969 96.070312 294.089844 99.496094 C 294.273438 101.8125 294.289062 103.804688 294.597656 106.011719 C 294.941406 109.570312 294.988281 112.910156 295.101562 116.667969 C 295.125 118.945312 295.082031 120.8125 295.101562 123.078125 C 295.121094 127.121094 295.078125 130.765625 295.101562 134.828125 C 295.101562 137.121094 295.035156 138.996094 295.035156 141.269531 C 294.46875 145.898438 293.835938 150.128906 293.195312 154.746094 C 292.585938 157.664062 291.984375 160.1875 291.433594 163.085938 C 290.25 168.035156 289.007812 172.617188 287.707031 177.566406 C 287.644531 177.933594 287.707031 177.953125 287.453125 178.027344 C 287.074219 178.628906 286.949219 179.152344 286.824219 179.675781 C 285.871094 182.183594 284.921875 184.695312 283.992188 187.558594 C 284.019531 187.910156 284.0625 187.9375 283.777344 188.003906 C 283.332031 188.652344 283.171875 189.238281 283.007812 189.820312 C 279.742188 196.535156 276.480469 203.25 273.152344 210.296875 C 273.089844 210.625 273.160156 210.644531 272.90625 210.710938 C 272.535156 211.308594 272.414062 211.839844 272.292969 212.371094 C 268.628906 217.710938 264.964844 223.050781 261.148438 228.71875 C 260.996094 229.046875 260.703125 229.289062 260.394531 229.523438 C 259.832031 230.300781 259.582031 230.847656 259.328125 231.394531 C 259.328125 231.394531 259.433594 231.40625 259.167969 231.445312 C 258.742188 231.824219 258.582031 232.164062 258.425781 232.503906 C 253.867188 237.582031 249.519531 242.871094 244.691406 247.679688 C 239.761719 252.597656 234.359375 257.042969 228.65625 262.003906 C 227.359375 263.003906 226.570312 263.699219 225.78125 264.390625 C 225.78125 264.390625 225.394531 264.542969 225.363281 264.632812 C 219.875 268.300781 214.414062 271.878906 208.527344 275.746094 C 207.679688 276.324219 207.265625 276.609375 206.855469 276.898438 C 206.855469 276.898438 206.921875 276.875 206.914062 276.839844 C 200.117188 279.960938 193.332031 283.117188 186.023438 286.570312 C 185.0625 287.1875 184.625 287.5 184.183594 287.816406 C 184.183594 287.816406 184.21875 287.828125 184.210938 287.8125 C 181.570312 288.515625 178.933594 289.238281 176.121094 290.257812 C 170.738281 291.992188 165.539062 293.429688 160.03125 295.042969 C 157.085938 295.578125 154.453125 295.9375 151.617188 296.601562 C 147.144531 297.421875 142.871094 297.933594 138.273438 298.636719 C 136.070312 298.804688 134.195312 298.785156 131.921875 298.828125 C 127.878906 298.84375 124.230469 298.800781 120.167969 298.820312 M 35.566406 91.636719 C 36.171875 92.851562 36.71875 94.105469 37.398438 95.277344 C 43.90625 106.519531 56.984375 112.035156 69.664062 108.914062 C 81.890625 105.902344 91.265625 94.566406 91.5 81.988281 C 91.734375 69.46875 86.089844 60.179688 74.90625 54.582031 C 64.453125 49.347656 51.894531 51.128906 43.25 59.160156 C 33.800781 67.941406 31.21875 78.683594 35.566406 91.636719 M 168.566406 53.582031 C 155 59.65625 147.621094 72.367188 150.078125 85.441406 C 152.65625 99.15625 163.839844 109.359375 177.277344 109.746094 C 189.78125 110.109375 199.292969 104.59375 204.796875 93.375 C 210.238281 82.285156 208.824219 71.417969 200.800781 62.074219 C 192.414062 52.3125 181.652344 49.457031 168.566406 53.582031 M 68.835938 187.386719 C 60.636719 193.265625 52.234375 198.886719 44.316406 205.125 C 39.789062 208.695312 39.640625 213.242188 42.816406 216.53125 C 46.003906 219.828125 50.160156 219.46875 54.375 215.527344 C 91.140625 181.179688 150.347656 181.085938 186.738281 215.3125 C 187.507812 216.035156 188.261719 216.808594 189.140625 217.378906 C 192.539062 219.589844 195.851562 219.265625 198.566406 216.347656 C 201.148438 213.574219 201.335938 210.253906 198.980469 207.246094 C 197.320312 205.125 195.335938 203.179688 193.21875 201.5 C 154.953125 171.121094 113.53125 167.621094 68.835938 187.386719 M 96.992188 8.347656 C 72.871094 17.972656 48.742188 27.578125 24.636719 37.242188 C 19.914062 39.136719 17.964844 42.894531 19.382812 46.8125 C 20.898438 50.992188 24.992188 52.699219 29.839844 50.777344 C 53.425781 41.433594 76.972656 31.996094 100.53125 22.582031 C 104.292969 21.078125 106.722656 18.445312 105.929688 14.238281 C 105.121094 9.941406 102.160156 7.878906 96.992188 8.347656 M 218.917969 38.3125 C 194.390625 28.460938 169.882812 18.566406 145.324219 8.796875 C 141.085938 7.113281 137.164062 8.996094 135.671875 12.894531 C 134.222656 16.6875 135.988281 20.617188 140.332031 22.367188 C 164.007812 31.894531 187.726562 41.324219 211.417969 50.8125 C 215.25 52.34375 218.679688 51.96875 221.046875 48.417969 C 223.414062 44.871094 222.609375 41.527344 218.917969 38.3125 Z M 218.917969 38.3125 " fill-opacity="1" fill-rule="nonzero"/><path fill="#4d4a47" d="M 35.441406 91.304688 C 31.21875 78.683594 33.800781 67.941406 43.25 59.160156 C 51.894531 51.128906 64.453125 49.347656 74.90625 54.582031 C 86.089844 60.179688 91.734375 69.46875 91.5 81.988281 C 91.265625 94.566406 81.890625 105.902344 69.664062 108.914062 C 56.984375 112.035156 43.90625 106.519531 37.398438 95.277344 C 36.71875 94.105469 36.171875 92.851562 35.441406 91.304688 Z M 35.441406 91.304688 " fill-opacity="1" fill-rule="nonzero"/><path fill="#4d4b47" d="M 168.910156 53.484375 C 181.652344 49.457031 192.414062 52.3125 200.800781 62.074219 C 208.824219 71.417969 210.238281 82.285156 204.796875 93.375 C 199.292969 104.59375 189.78125 110.109375 177.277344 109.746094 C 163.839844 109.359375 152.65625 99.15625 150.078125 85.441406 C 147.621094 72.367188 155 59.65625 168.910156 53.484375 Z M 168.910156 53.484375 " fill-opacity="1" fill-rule="nonzero"/><path fill="#4f4c46" d="M 69.144531 187.242188 C 113.53125 167.621094 154.953125 171.121094 193.21875 201.5 C 195.335938 203.179688 197.320312 205.125 198.980469 207.246094 C 201.335938 210.253906 201.148438 213.574219 198.566406 216.347656 C 195.851562 219.265625 192.539062 219.589844 189.140625 217.378906 C 188.261719 216.808594 187.507812 216.035156 186.738281 215.3125 C 150.347656 181.085938 91.140625 181.179688 54.375 215.527344 C 50.160156 219.46875 46.003906 219.828125 42.816406 216.53125 C 39.640625 213.242188 39.789062 208.695312 44.316406 205.125 C 52.234375 198.886719 60.636719 193.265625 69.144531 187.242188 Z M 69.144531 187.242188 " fill-opacity="1" fill-rule="nonzero"/><path fill="#4f4c46" d="M 97.347656 8.273438 C 102.160156 7.878906 105.121094 9.941406 105.929688 14.238281 C 106.722656 18.445312 104.292969 21.078125 100.53125 22.582031 C 76.972656 31.996094 53.425781 41.433594 29.839844 50.777344 C 24.992188 52.699219 20.898438 50.992188 19.382812 46.8125 C 17.964844 42.894531 19.914062 39.136719 24.636719 37.242188 C 48.742188 27.578125 72.871094 17.972656 97.347656 8.273438 Z M 97.347656 8.273438 " fill-opacity="1" fill-rule="nonzero"/><path fill="#4f4c46" d="M 219.191406 38.519531 C 222.609375 41.527344 223.414062 44.871094 221.046875 48.417969 C 218.679688 51.96875 215.25 52.34375 211.417969 50.8125 C 187.726562 41.324219 164.007812 31.894531 140.332031 22.367188 C 135.988281 20.617188 134.222656 16.6875 135.671875 12.894531 C 137.164062 8.996094 141.085938 7.113281 145.324219 8.796875 C 169.882812 18.566406 194.390625 28.460938 219.191406 38.519531 Z M 219.191406 38.519531 " fill-opacity="1" fill-rule="nonzero"/></svg>