<svg xmlns="http://www.w3.org/2000/svg" xmlns:xlink="http://www.w3.org/1999/xlink" width="320" zoomAndPan="magnify" viewBox="0 0 240 239.999995" height="320" preserveAspectRatio="xMidYMid meet" version="1.0"><rect x="-24" width="288" fill="#ffffff" y="-23.999999" height="287.999994" fill-opacity="1"/><rect x="-24" width="288" fill="#ffffff" y="-23.999999" height="287.999994" fill-opacity="1"/><path fill="#fefefd" d="M 201.433594 385.878906 C 92.558594 385.878906 -15.53125 385.828125 -123.621094 386.03125 C -129 386.042969 -130.058594 384.976562 -130.054688 379.597656 C -129.871094 216.285156 -129.871094 52.972656 -130.054688 -110.339844 C -130.058594 -115.714844 -129 -116.777344 -123.625 -116.769531 C 39.6875 -116.585938 203 -116.585938 366.3125 -116.769531 C 371.691406 -116.777344 372.75 -115.714844 372.746094 -110.339844 C 372.5625 52.972656 372.5625 216.285156 372.746094 379.597656 C 372.75 384.972656 371.695312 386.0625 366.316406 386.035156 C 311.617188 385.78125 256.917969 385.878906 201.433594 385.878906 Z M 201.433594 385.878906 " fill-opacity="1" fill-rule="nonzero"/><path fill="#fdb804" d="M 65.652344 314.507812 C -17.523438 287.347656 -69.734375 212.824219 -66.847656 126.015625 C -63.828125 35.285156 10.09375 -43.621094 100.269531 -52.371094 C 182.515625 -60.351562 255.296875 -19.800781 291.617188 54.242188 C 337.984375 148.769531 292.082031 268.144531 194.445312 308.015625 C 152.316406 325.222656 109.753906 327.339844 65.652344 314.507812 Z M 65.652344 314.507812 " fill-opacity="1" fill-rule="nonzero"/><path fill="#554c3a" d="M 42.96875 194.503906 C 43.136719 200.847656 41.460938 205.347656 34.84375 205.082031 C 28.429688 204.824219 26.816406 200.394531 27.148438 194.675781 C 28.585938 170.128906 40.78125 151.695312 60.21875 137.820312 C 100.105469 109.347656 157.0625 112.910156 192.671875 146.242188 C 206.496094 159.175781 214.621094 175.320312 215.519531 194.613281 C 215.773438 200.089844 214.679688 204.925781 207.988281 205.125 C 201.492188 205.316406 200.078125 201 199.644531 195.285156 C 197.898438 172.316406 185.113281 156.238281 165.597656 145.929688 C 136.046875 130.324219 105.765625 130.421875 76.308594 146.394531 C 57.652344 156.507812 45.554688 172.027344 42.96875 194.503906 Z M 42.96875 194.503906 " fill-opacity="1" fill-rule="nonzero"/><path fill="#554c39" d="M 56.402344 94.226562 C 47.832031 96.148438 40.011719 98.089844 32.679688 101.71875 C 28.109375 103.984375 23.320312 104.605469 20.570312 99.074219 C 17.699219 93.292969 20.835938 89.851562 25.953125 87.324219 C 34.609375 83.054688 43.941406 80.929688 55.480469 78.394531 C 45.449219 71.214844 36.925781 65.085938 28.378906 59 C 19.457031 52.648438 17.167969 48.238281 21.132812 43.710938 C 27.320312 36.632812 32.453125 42.441406 37.34375 45.863281 C 53.160156 56.929688 68.773438 68.289062 84.570312 79.386719 C 88.625 82.238281 91.253906 85.59375 89.320312 90.535156 C 87.285156 95.730469 82.828125 95.828125 78.117188 94.738281 C 71.15625 93.132812 64.113281 93.609375 56.402344 94.226562 Z M 56.402344 94.226562 " fill-opacity="1" fill-rule="nonzero"/><path fill="#554c39" d="M 172.257812 69.355469 C 184.648438 60.578125 196.59375 52.15625 208.472656 43.640625 C 212.917969 40.453125 217.632812 38.417969 221.488281 43.695312 C 225.527344 49.226562 222.308594 53.324219 217.496094 56.722656 C 207.9375 63.46875 198.488281 70.371094 187.902344 77.996094 C 195.699219 80.261719 202.296875 82.023438 208.785156 84.128906 C 212.238281 85.246094 215.65625 86.6875 218.8125 88.472656 C 223.035156 90.859375 224.375 94.613281 222.179688 99.132812 C 220.046875 103.515625 216.140625 104.089844 212.167969 102.582031 C 205.589844 100.085938 199.234375 96.964844 192.308594 95.449219 C 183.042969 93.425781 173.738281 92.828125 164.363281 94.914062 C 160.035156 95.875 155.699219 95.742188 153.585938 91.039062 C 151.390625 86.164062 153.71875 82.550781 157.789062 79.714844 C 162.5 76.429688 167.128906 73.023438 172.257812 69.355469 Z M 172.257812 69.355469 " fill-opacity="1" fill-rule="nonzero"/></svg>