<svg xmlns="http://www.w3.org/2000/svg" xmlns:xlink="http://www.w3.org/1999/xlink" width="320" zoomAndPan="magnify" viewBox="0 0 240 239.999995" height="320" preserveAspectRatio="xMidYMid meet" version="1.0"><rect x="-24" width="288" fill="#ffffff" y="-23.999999" height="287.999994" fill-opacity="1"/><rect x="-24" width="288" fill="#ffffff" y="-23.999999" height="287.999994" fill-opacity="1"/><path fill="#fefefd" d="M 190.242188 348.230469 C 88.714844 348.230469 -12.097656 348.230469 -112.90625 348.230469 C -112.90625 194.980469 -112.90625 41.730469 -112.90625 -111.519531 C 40.34375 -111.519531 193.59375 -111.519531 346.84375 -111.519531 C 346.84375 41.730469 346.84375 194.980469 346.84375 348.230469 C 294.882812 348.230469 242.921875 348.230469 190.242188 348.230469 M 47.714844 276.097656 C 93.226562 295.105469 138.597656 295.304688 184.523438 276.765625 C 273.332031 240.917969 315.410156 129.554688 272.117188 43.519531 C 236.660156 -26.941406 165.738281 -63.40625 87.722656 -51.289062 C 9.089844 -39.078125 -54.179688 32.261719 -55.027344 111.941406 C -55.832031 187.523438 -20.945312 242.058594 47.714844 276.097656 Z M 47.714844 276.097656 " fill-opacity="1" fill-rule="nonzero"/><path fill="#fdb804" d="M 47.214844 275.878906 C -20.945312 242.058594 -55.832031 187.523438 -55.027344 111.941406 C -54.179688 32.261719 9.089844 -39.078125 87.722656 -51.289062 C 165.738281 -63.40625 236.660156 -26.941406 272.117188 43.519531 C 315.410156 129.554688 273.332031 240.917969 184.523438 276.765625 C 138.597656 295.304688 93.226562 295.105469 47.214844 275.878906 M 35.339844 189.414062 C 35.757812 189.660156 36.171875 189.910156 36.515625 190.195312 C 36.515625 190.195312 36.542969 190.117188 36.8125 190.832031 C 37.25 191.058594 37.6875 191.285156 37.996094 191.574219 C 37.996094 191.574219 38.058594 191.445312 38.289062 192.195312 C 38.738281 192.417969 39.1875 192.644531 39.460938 192.96875 C 39.460938 192.96875 39.574219 192.804688 39.769531 193.574219 C 40.230469 193.777344 40.6875 193.980469 40.886719 194.265625 C 40.886719 194.265625 41.109375 194.109375 41.304688 195 C 42.113281 195.308594 42.925781 195.617188 43.695312 195.945312 C 43.695312 195.945312 43.707031 195.902344 43.820312 196.933594 C 44.941406 197.453125 46.0625 197.976562 47.648438 198.578125 C 47.648438 198.578125 48.015625 198.875 48.335938 199.53125 C 48.765625 199.726562 49.195312 199.921875 49.464844 200.125 C 49.464844 200.125 49.601562 200.039062 49.617188 201.089844 C 51.996094 202.210938 54.375 203.328125 56.65625 204.535156 C 56.65625 204.535156 56.683594 204.40625 57.101562 205.210938 C 57.945312 205.433594 58.785156 205.660156 59.484375 205.933594 C 59.484375 205.933594 59.605469 205.839844 59.664062 206.882812 C 66.742188 209.9375 73.671875 213.402344 80.925781 215.957031 C 98.871094 222.289062 117.617188 220.777344 136.058594 219.964844 C 143.207031 219.652344 150.1875 215.421875 157.582031 212.773438 C 157.582031 212.773438 157.960938 212.882812 159.191406 213.074219 C 164.234375 210.664062 169.28125 208.25 174.457031 205.921875 C 174.457031 205.921875 174.308594 205.875 175.21875 205.933594 C 175.894531 205.417969 176.566406 204.902344 177.273438 204.527344 C 177.273438 204.527344 177.171875 204.425781 178.253906 204.542969 C 180.292969 203.054688 182.335938 201.566406 184.507812 200.1875 C 184.507812 200.1875 184.351562 200.125 185.421875 200.230469 C 187.023438 198.789062 188.628906 197.347656 190.242188 195.945312 C 190.242188 195.945312 190.203125 195.933594 190.882812 195.726562 C 191.3125 195.472656 191.597656 195.105469 191.703125 194.511719 C 191.703125 194.511719 191.796875 194.582031 192.8125 194.558594 C 193.828125 193.523438 194.84375 192.488281 195.96875 191.546875 C 195.96875 191.546875 195.828125 191.53125 196.5625 191.335938 C 196.839844 190.921875 197.113281 190.511719 197.417969 190.1875 C 197.417969 190.1875 197.332031 190.152344 198.050781 189.925781 C 198.316406 189.515625 198.578125 189.105469 198.863281 188.757812 C 198.863281 188.757812 198.800781 188.738281 199.507812 188.5 C 199.765625 188.089844 200.027344 187.679688 200.300781 187.324219 C 200.300781 187.324219 200.246094 187.304688 200.953125 187.058594 C 201.207031 186.648438 201.464844 186.238281 201.738281 185.886719 C 201.738281 185.886719 201.679688 185.867188 202.382812 185.621094 C 202.640625 185.210938 202.898438 184.796875 203.175781 184.449219 C 203.175781 184.449219 203.113281 184.429688 203.820312 184.167969 C 204.066406 183.75 204.3125 183.328125 204.601562 183 C 204.601562 183 204.507812 182.964844 205.226562 182.722656 C 205.476562 182.296875 205.726562 181.875 205.996094 181.570312 C 205.996094 181.570312 205.914062 181.480469 206.957031 181.472656 C 211.421875 179.625 213.820312 176.488281 213.230469 171.515625 C 213.230469 171.515625 213.179688 171.492188 214.234375 171.429688 C 215.757812 168.054688 217.28125 164.683594 218.886719 161.484375 C 218.886719 161.484375 218.765625 161.332031 219.75 161.019531 C 222.214844 154.019531 224.871094 147.074219 226.933594 139.957031 C 227.226562 138.933594 224.644531 137.078125 223.273438 135.59375 C 223.273438 135.59375 223.285156 135.476562 223.160156 134.398438 C 217.945312 129.394531 212.8125 130.050781 210.683594 135.992188 C 210.683594 135.992188 210.769531 135.882812 209.765625 136.242188 C 206.914062 143.53125 204.019531 150.808594 201.230469 158.121094 C 200.425781 160.234375 199.910156 162.453125 198.863281 164.511719 C 198.863281 164.511719 199.257812 164.648438 198.25 164.769531 C 196.691406 167.144531 195.132812 169.519531 193.402344 171.820312 C 193.402344 171.820312 193.507812 171.976562 192.484375 171.746094 C 190.886719 173.710938 189.285156 175.675781 187.394531 177.566406 C 187.394531 177.566406 187.695312 177.585938 186.90625 177.675781 C 186.683594 178.125 186.464844 178.574219 185.914062 178.839844 C 185.914062 178.839844 186.246094 179.003906 185.457031 179.109375 C 185.230469 179.558594 185 180.011719 184.863281 180.382812 C 184.863281 180.382812 184.835938 180.496094 183.832031 180.34375 C 183.121094 181.265625 182.40625 182.1875 181.613281 183.027344 C 181.613281 183.027344 181.710938 183.085938 180.65625 183.003906 C 179.597656 184.039062 178.539062 185.074219 177.320312 186.070312 C 177.320312 186.070312 177.484375 186.058594 176.554688 185.980469 C 175.933594 186.554688 175.3125 187.125 174.492188 187.574219 C 174.492188 187.574219 174.722656 187.613281 173.945312 187.691406 C 173.660156 188.101562 173.375 188.511719 173.035156 188.773438 C 173.035156 188.773438 173.144531 188.890625 172.101562 188.78125 C 170.5625 189.847656 169.019531 190.914062 167.222656 191.867188 C 167.222656 191.867188 167.496094 191.933594 166.347656 191.726562 C 155.457031 194.707031 144.589844 197.785156 133.667969 200.644531 C 114.457031 205.675781 96.199219 201.472656 78.195312 194.777344 C 72.457031 192.640625 66.597656 190.839844 60.902344 188.773438 C 60.902344 188.773438 60.851562 188.917969 60.589844 188.179688 C 60.128906 187.992188 59.667969 187.800781 59.425781 187.550781 C 59.425781 187.550781 59.25 187.695312 58.988281 186.804688 C 58.148438 186.546875 57.308594 186.289062 56.640625 186 C 56.640625 186 56.480469 186.082031 56.464844 185.039062 C 55.054688 184.382812 53.644531 183.726562 52.324219 183.023438 C 52.324219 183.023438 52.253906 183.097656 52.324219 182.027344 C 50.273438 180.585938 48.226562 179.148438 46.371094 177.410156 C 46.371094 177.410156 46.121094 177.664062 46.339844 176.601562 C 44.855469 175.53125 43.371094 174.460938 41.902344 173.332031 C 41.902344 173.332031 41.929688 173.273438 41.839844 172.484375 C 41.386719 172.273438 40.933594 172.066406 40.414062 171.808594 C 40.414062 171.808594 40.382812 171.886719 40.578125 170.875 C 39.625 170.191406 38.671875 169.507812 37.792969 168.628906 C 37.792969 168.628906 37.757812 168.835938 37.894531 167.75 C 36.828125 166.738281 35.757812 165.722656 34.84375 164.675781 C 34.84375 164.675781 34.699219 164.621094 34.929688 163.519531 C 31.800781 154.75 28.710938 145.972656 25.472656 137.246094 C 25.234375 136.605469 23.945312 136.355469 23.21875 135.695312 C 23.21875 135.695312 23.230469 135.9375 23.160156 135.144531 C 22.726562 134.894531 22.289062 134.644531 22.078125 134.40625 C 22.078125 134.40625 21.859375 134.46875 21.882812 133.335938 C 18.703125 133.277344 15.527344 133.214844 12.460938 133.078125 C 12.460938 133.078125 12.484375 133.210938 11.445312 132.996094 C 5.277344 138.742188 7.28125 154.054688 15.011719 161.449219 C 15.011719 161.449219 15.113281 161.308594 15.027344 162.21875 C 15.523438 162.910156 16.015625 163.601562 16.40625 164.320312 C 16.40625 164.320312 16.480469 164.238281 16.378906 165.351562 C 17.847656 167.390625 19.316406 169.433594 20.710938 171.515625 C 20.710938 171.515625 20.757812 171.445312 20.683594 172.550781 C 20.722656 177.515625 23.089844 180.558594 27.960938 181.5625 C 27.960938 181.5625 27.972656 181.433594 28.1875 182.167969 C 28.609375 182.425781 29.03125 182.6875 29.347656 182.992188 C 29.347656 182.992188 29.390625 182.886719 29.609375 183.613281 C 30.019531 183.882812 30.425781 184.152344 30.765625 184.445312 C 30.765625 184.445312 30.792969 184.375 31.039062 185.082031 C 31.453125 185.339844 31.867188 185.59375 32.203125 185.878906 C 32.203125 185.878906 32.234375 185.800781 32.472656 186.515625 C 32.882812 186.773438 33.292969 187.035156 33.636719 187.320312 C 33.636719 187.320312 33.660156 187.253906 33.898438 187.960938 C 34.308594 188.222656 34.714844 188.484375 35.070312 188.761719 C 35.070312 188.761719 35.089844 188.707031 35.339844 189.414062 M 168.207031 69.269531 C 182.65625 66.003906 193.28125 73.304688 195.699219 88.621094 C 196.480469 93.566406 198.035156 96.984375 203.578125 96.707031 C 209.335938 96.417969 210.347656 92.429688 210.300781 87.644531 C 210.125 69.316406 193.726562 53.78125 174.441406 53.734375 C 155.382812 53.683594 138.695312 69.484375 138.496094 87.660156 C 138.445312 92.507812 139.550781 96.445312 145.230469 96.71875 C 150.707031 96.980469 152.585938 93.652344 153.019531 88.582031 C 153.800781 79.46875 158.355469 72.894531 168.207031 69.269531 M 80.914062 87.835938 C 80.894531 93.074219 82.660156 96.9375 88.667969 96.703125 C 94.957031 96.460938 95.574219 91.972656 95.398438 87.019531 C 94.746094 68.503906 78.28125 53.441406 58.972656 53.734375 C 39.933594 54.019531 23.574219 70.085938 23.640625 88.292969 C 23.65625 93.011719 25.152344 96.378906 30.292969 96.714844 C 35.316406 97.042969 37.230469 94.152344 38.203125 89.417969 C 39.140625 84.859375 40.5 79.957031 43.160156 76.28125 C 47.996094 69.597656 55.253906 66.953125 63.480469 68.699219 C 73.164062 70.757812 78.707031 77.136719 80.914062 87.835938 Z M 80.914062 87.835938 " fill-opacity="1" fill-rule="nonzero"/><path fill="#544c3a" d="M 157.960938 212.882812 C 157.960938 212.882812 157.582031 212.773438 156.8125 212.875 C 143.332031 214.910156 130.664062 217.914062 117.886719 218.535156 C 97.523438 219.523438 78.242188 213.722656 59.605469 205.839844 C 59.605469 205.839844 59.484375 205.933594 59.316406 205.542969 C 58.328125 204.902344 57.503906 204.652344 56.683594 204.40625 C 56.683594 204.40625 56.65625 204.535156 56.460938 204.082031 C 54.046875 202.433594 51.824219 201.238281 49.601562 200.039062 C 49.601562 200.039062 49.464844 200.125 49.398438 199.785156 C 48.890625 199.253906 48.453125 199.066406 48.015625 198.875 C 48.015625 198.875 47.648438 198.578125 47.164062 198.164062 C 45.6875 197.136719 44.699219 196.519531 43.707031 195.902344 C 43.707031 195.902344 43.695312 195.945312 43.53125 195.550781 C 42.613281 194.808594 41.863281 194.457031 41.109375 194.109375 C 41.109375 194.109375 40.886719 194.265625 40.894531 193.867188 C 40.460938 193.246094 40.019531 193.023438 39.574219 192.804688 C 39.574219 192.804688 39.460938 192.96875 39.417969 192.558594 C 38.9375 191.914062 38.5 191.679688 38.058594 191.445312 C 38.058594 191.445312 37.996094 191.574219 37.925781 191.191406 C 37.414062 190.574219 36.976562 190.34375 36.542969 190.117188 C 36.542969 190.117188 36.515625 190.195312 36.425781 189.824219 C 35.921875 189.207031 35.503906 188.957031 35.089844 188.707031 C 35.089844 188.707031 35.070312 188.761719 34.984375 188.394531 C 34.488281 187.769531 34.074219 187.511719 33.660156 187.253906 C 33.660156 187.253906 33.636719 187.320312 33.558594 186.949219 C 33.0625 186.320312 32.648438 186.058594 32.234375 185.800781 C 32.234375 185.800781 32.203125 185.878906 32.125 185.507812 C 31.628906 184.882812 31.210938 184.628906 30.792969 184.375 C 30.792969 184.375 30.765625 184.445312 30.691406 184.070312 C 30.210938 183.425781 29.800781 183.15625 29.390625 182.886719 C 29.390625 182.886719 29.347656 182.992188 29.285156 182.605469 C 28.808594 181.957031 28.390625 181.695312 27.972656 181.433594 C 27.972656 181.433594 27.960938 181.5625 27.90625 181.039062 C 25.488281 177.488281 23.125 174.46875 20.757812 171.445312 C 20.757812 171.445312 20.710938 171.515625 20.6875 171.019531 C 19.265625 168.425781 17.871094 166.332031 16.480469 164.238281 C 16.480469 164.238281 16.40625 164.320312 16.457031 163.867188 C 16.042969 162.710938 15.578125 162.011719 15.113281 161.308594 C 15.113281 161.308594 15.011719 161.449219 15.0625 160.847656 C 14.195312 157.542969 13.1875 154.867188 12.378906 152.128906 C 10.523438 145.828125 7.417969 139.484375 12.484375 133.210938 C 12.484375 133.210938 12.460938 133.078125 12.953125 133.132812 C 16.253906 133.613281 19.054688 134.039062 21.859375 134.46875 C 21.859375 134.46875 22.078125 134.40625 22.0625 134.761719 C 22.441406 135.390625 22.835938 135.664062 23.230469 135.9375 C 23.230469 135.9375 23.21875 135.695312 23.210938 136.382812 C 25.046875 147.082031 27.511719 156.835938 34.699219 164.621094 C 34.699219 164.621094 34.84375 164.675781 34.847656 165.128906 C 35.820312 166.664062 36.789062 167.75 37.757812 168.835938 C 37.757812 168.835938 37.792969 168.628906 37.835938 169.15625 C 38.714844 170.417969 39.550781 171.152344 40.382812 171.886719 C 40.382812 171.886719 40.414062 171.808594 40.539062 172.195312 C 41.085938 172.816406 41.507812 173.042969 41.929688 173.273438 C 41.929688 173.273438 41.902344 173.332031 41.972656 173.808594 C 43.398438 175.410156 44.757812 176.535156 46.121094 177.664062 C 46.121094 177.664062 46.371094 177.410156 46.390625 178.003906 C 48.359375 180.101562 50.304688 181.597656 52.253906 183.097656 C 52.253906 183.097656 52.324219 183.023438 52.464844 183.464844 C 53.898438 184.632812 55.191406 185.355469 56.480469 186.082031 C 56.480469 186.082031 56.640625 186 56.753906 186.402344 C 57.664062 187.105469 58.457031 187.402344 59.25 187.695312 C 59.25 187.695312 59.425781 187.550781 59.449219 187.941406 C 59.933594 188.527344 60.390625 188.722656 60.851562 188.917969 C 60.851562 188.917969 60.902344 188.773438 61.097656 189.253906 C 82.75 202.550781 106.070312 206.628906 130.609375 203.761719 C 143.578125 202.246094 156.351562 199.460938 167.496094 191.933594 C 167.496094 191.933594 167.222656 191.867188 167.832031 191.902344 C 170.007812 190.917969 171.578125 189.90625 173.144531 188.890625 C 173.144531 188.890625 173.035156 188.773438 173.441406 188.785156 C 174.140625 188.402344 174.433594 188.007812 174.722656 187.613281 C 174.722656 187.613281 174.492188 187.574219 175.027344 187.621094 C 176.207031 187.132812 176.84375 186.59375 177.484375 186.058594 C 177.484375 186.058594 177.320312 186.070312 177.851562 186.027344 C 179.492188 185.019531 180.601562 184.050781 181.710938 183.085938 C 181.710938 183.085938 181.613281 183.027344 182.089844 183.007812 C 183.320312 182.160156 184.078125 181.328125 184.835938 180.496094 C 184.835938 180.496094 184.863281 180.382812 185.183594 180.324219 C 185.753906 179.84375 186 179.425781 186.246094 179.003906 C 186.246094 179.003906 185.914062 178.839844 186.445312 178.847656 C 187.21875 178.429688 187.457031 178.007812 187.695312 177.585938 C 187.695312 177.585938 187.394531 177.566406 188.011719 177.535156 C 190.253906 175.660156 191.882812 173.816406 193.507812 171.976562 C 193.507812 171.976562 193.402344 171.820312 193.929688 171.710938 C 196.054688 169.285156 197.65625 166.96875 199.257812 164.648438 C 199.257812 164.648438 198.863281 164.511719 199.480469 164.332031 C 203.65625 154.730469 207.214844 145.304688 210.769531 135.882812 C 210.769531 135.882812 210.683594 135.992188 211.207031 135.828125 C 215.519531 131.6875 219.390625 132.890625 223.285156 135.476562 C 223.285156 135.476562 223.273438 135.59375 223.398438 136.132812 C 223.5625 139.203125 224.089844 141.851562 223.539062 144.25 C 222.21875 150.003906 220.386719 155.644531 218.765625 161.332031 C 218.765625 161.332031 218.886719 161.484375 218.464844 161.695312 C 216.421875 165.097656 214.800781 168.292969 213.179688 171.492188 C 213.179688 171.492188 213.230469 171.515625 212.8125 171.746094 C 210.234375 175.144531 208.074219 178.3125 205.914062 181.480469 C 205.914062 181.480469 205.996094 181.570312 205.625 181.628906 C 205.003906 182.109375 204.757812 182.539062 204.507812 182.964844 C 204.507812 182.964844 204.601562 183 204.226562 183.082031 C 203.605469 183.582031 203.359375 184.007812 203.113281 184.429688 C 203.113281 184.429688 203.175781 184.449219 202.808594 184.535156 C 202.1875 185.039062 201.933594 185.453125 201.679688 185.867188 C 201.679688 185.867188 201.738281 185.886719 201.375 185.976562 C 200.753906 186.476562 200.5 186.890625 200.246094 187.304688 C 200.246094 187.304688 200.300781 187.324219 199.9375 187.414062 C 199.316406 187.914062 199.058594 188.324219 198.800781 188.738281 C 198.800781 188.738281 198.863281 188.757812 198.496094 188.84375 C 197.863281 189.335938 197.597656 189.742188 197.332031 190.152344 C 197.332031 190.152344 197.417969 190.1875 197.035156 190.25 C 196.378906 190.71875 196.101562 191.125 195.828125 191.53125 C 195.828125 191.53125 195.96875 191.546875 195.476562 191.589844 C 193.921875 192.617188 192.859375 193.597656 191.796875 194.582031 C 191.796875 194.582031 191.703125 194.511719 191.363281 194.644531 C 190.75 195.164062 190.476562 195.546875 190.203125 195.933594 C 190.203125 195.933594 190.242188 195.945312 189.773438 195.992188 C 187.65625 197.402344 186.003906 198.761719 184.351562 200.125 C 184.351562 200.125 184.507812 200.1875 183.960938 200.191406 C 181.335938 201.605469 179.253906 203.015625 177.171875 204.425781 C 177.171875 204.425781 177.273438 204.527344 176.820312 204.464844 C 175.675781 204.894531 174.992188 205.386719 174.308594 205.875 C 174.308594 205.875 174.457031 205.921875 173.863281 205.929688 C 168.167969 208.253906 163.066406 210.570312 157.960938 212.882812 Z M 157.960938 212.882812 " fill-opacity="1" fill-rule="nonzero"/><path fill="#564c38" d="M 167.65625 69.410156 C 158.355469 72.894531 153.800781 79.46875 153.019531 88.582031 C 152.585938 93.652344 150.707031 96.980469 145.230469 96.71875 C 139.550781 96.445312 138.445312 92.507812 138.496094 87.660156 C 138.695312 69.484375 155.382812 53.683594 174.441406 53.734375 C 193.726562 53.78125 210.125 69.316406 210.300781 87.644531 C 210.347656 92.429688 209.335938 96.417969 203.578125 96.707031 C 198.035156 96.984375 196.480469 93.566406 195.699219 88.621094 C 193.28125 73.304688 182.65625 66.003906 167.65625 69.410156 Z M 167.65625 69.410156 " fill-opacity="1" fill-rule="nonzero"/><path fill="#564c38" d="M 80.84375 87.261719 C 78.707031 77.136719 73.164062 70.757812 63.480469 68.699219 C 55.253906 66.953125 47.996094 69.597656 43.160156 76.28125 C 40.5 79.957031 39.140625 84.859375 38.203125 89.417969 C 37.230469 94.152344 35.316406 97.042969 30.292969 96.714844 C 25.152344 96.378906 23.65625 93.011719 23.640625 88.292969 C 23.574219 70.085938 39.933594 54.019531 58.972656 53.734375 C 78.28125 53.441406 94.746094 68.503906 95.398438 87.019531 C 95.574219 91.972656 94.957031 96.460938 88.667969 96.703125 C 82.660156 96.9375 80.894531 93.074219 80.84375 87.261719 Z M 80.84375 87.261719 " fill-opacity="1" fill-rule="nonzero"/><path fill="#e3af27" d="M 166.921875 191.832031 C 156.351562 199.460938 143.578125 202.246094 130.609375 203.761719 C 106.070312 206.628906 82.75 202.550781 61.046875 189.308594 C 66.597656 190.839844 72.457031 192.640625 78.195312 194.777344 C 96.199219 201.472656 114.457031 205.675781 133.667969 200.644531 C 144.589844 197.785156 155.457031 194.707031 166.921875 191.832031 Z M 166.921875 191.832031 " fill-opacity="1" fill-rule="nonzero"/><path fill="#e3af27" d="M 59.636719 206.363281 C 78.242188 213.722656 97.523438 219.523438 117.886719 218.535156 C 130.664062 217.914062 143.332031 214.910156 156.644531 212.976562 C 150.1875 215.421875 143.207031 219.652344 136.058594 219.964844 C 117.617188 220.777344 98.871094 222.289062 80.925781 215.957031 C 73.671875 213.402344 66.742188 209.9375 59.636719 206.363281 Z M 59.636719 206.363281 " fill-opacity="1" fill-rule="nonzero"/><path fill="#e3af27" d="M 34.816406 164.070312 C 27.511719 156.835938 25.046875 147.082031 23.171875 136.5 C 23.945312 136.355469 25.234375 136.605469 25.472656 137.246094 C 28.710938 145.972656 31.800781 154.75 34.816406 164.070312 Z M 34.816406 164.070312 " fill-opacity="1" fill-rule="nonzero"/><path fill="#e3af27" d="M 11.964844 133.105469 C 7.417969 139.484375 10.523438 145.828125 12.378906 152.128906 C 13.1875 154.867188 14.195312 157.542969 15.136719 160.800781 C 7.28125 154.054688 5.277344 138.742188 11.964844 133.105469 Z M 11.964844 133.105469 " fill-opacity="1" fill-rule="nonzero"/><path fill="#e3af27" d="M 210.269531 136.0625 C 207.214844 145.304688 203.65625 154.730469 199.683594 164.390625 C 199.910156 162.453125 200.425781 160.234375 201.230469 158.121094 C 204.019531 150.808594 206.914062 143.53125 210.269531 136.0625 Z M 210.269531 136.0625 " fill-opacity="1" fill-rule="nonzero"/><path fill="#e3af27" d="M 219.257812 161.175781 C 220.386719 155.644531 222.21875 150.003906 223.539062 144.25 C 224.089844 141.851562 223.5625 139.203125 223.457031 136.136719 C 224.644531 137.078125 227.226562 138.933594 226.933594 139.957031 C 224.871094 147.074219 222.214844 154.019531 219.257812 161.175781 Z M 219.257812 161.175781 " fill-opacity="1" fill-rule="nonzero"/><path fill="#e3af27" d="M 158.578125 212.980469 C 163.066406 210.570312 168.167969 208.253906 173.796875 205.886719 C 169.28125 208.25 164.234375 210.664062 158.578125 212.980469 Z M 158.578125 212.980469 " fill-opacity="1" fill-rule="nonzero"/><path fill="#e3af27" d="M 223.222656 134.9375 C 219.390625 132.890625 215.519531 131.6875 211.277344 135.820312 C 212.8125 130.050781 217.945312 129.394531 223.222656 134.9375 Z M 223.222656 134.9375 " fill-opacity="1" fill-rule="nonzero"/><path fill="#e3af27" d="M 20.71875 171.996094 C 23.125 174.46875 25.488281 177.488281 27.949219 180.988281 C 23.089844 180.558594 20.722656 177.515625 20.71875 171.996094 Z M 20.71875 171.996094 " fill-opacity="1" fill-rule="nonzero"/><path fill="#e3af27" d="M 206.4375 181.476562 C 208.074219 178.3125 210.234375 175.144531 212.796875 171.722656 C 213.820312 176.488281 211.421875 179.625 206.4375 181.476562 Z M 206.4375 181.476562 " fill-opacity="1" fill-rule="nonzero"/><path fill="#e3af27" d="M 213.707031 171.460938 C 214.800781 168.292969 216.421875 165.097656 218.421875 161.605469 C 217.28125 164.683594 215.757812 168.054688 213.707031 171.460938 Z M 213.707031 171.460938 " fill-opacity="1" fill-rule="nonzero"/><path fill="#e3af27" d="M 52.289062 182.5625 C 50.304688 181.597656 48.359375 180.101562 46.292969 178.15625 C 48.226562 179.148438 50.273438 180.585938 52.289062 182.5625 Z M 52.289062 182.5625 " fill-opacity="1" fill-rule="nonzero"/><path fill="#e3af27" d="M 198.753906 164.710938 C 197.65625 166.96875 196.054688 169.285156 194.015625 171.746094 C 195.132812 169.519531 196.691406 167.144531 198.753906 164.710938 Z M 198.753906 164.710938 " fill-opacity="1" fill-rule="nonzero"/><path fill="#e3af27" d="M 21.871094 133.902344 C 19.054688 134.039062 16.253906 133.613281 12.898438 133.171875 C 15.527344 133.214844 18.703125 133.277344 21.871094 133.902344 Z M 21.871094 133.902344 " fill-opacity="1" fill-rule="nonzero"/><path fill="#e3af27" d="M 49.609375 200.566406 C 51.824219 201.238281 54.046875 202.433594 56.511719 204.039062 C 54.375 203.328125 51.996094 202.210938 49.609375 200.566406 Z M 49.609375 200.566406 " fill-opacity="1" fill-rule="nonzero"/><path fill="#e3af27" d="M 177.710938 204.484375 C 179.253906 203.015625 181.335938 201.605469 183.898438 200.136719 C 182.335938 201.566406 180.292969 203.054688 177.710938 204.484375 Z M 177.710938 204.484375 " fill-opacity="1" fill-rule="nonzero"/><path fill="#e3af27" d="M 192.996094 171.859375 C 191.882812 173.816406 190.253906 175.660156 188.15625 177.574219 C 189.285156 175.675781 190.886719 173.710938 192.996094 171.859375 Z M 192.996094 171.859375 " fill-opacity="1" fill-rule="nonzero"/><path fill="#e3af27" d="M 16.429688 164.796875 C 17.871094 166.332031 19.265625 168.425781 20.722656 170.996094 C 19.316406 169.433594 17.847656 167.390625 16.429688 164.796875 Z M 16.429688 164.796875 " fill-opacity="1" fill-rule="nonzero"/><path fill="#e3af27" d="M 184.886719 200.175781 C 186.003906 198.761719 187.65625 197.402344 189.769531 195.972656 C 188.628906 197.347656 187.023438 198.789062 184.886719 200.175781 Z M 184.886719 200.175781 " fill-opacity="1" fill-rule="nonzero"/><path fill="#e3af27" d="M 46.230469 177.132812 C 44.757812 176.535156 43.398438 175.410156 41.960938 173.839844 C 43.371094 174.460938 44.855469 175.53125 46.230469 177.132812 Z M 46.230469 177.132812 " fill-opacity="1" fill-rule="nonzero"/><path fill="#e3af27" d="M 172.625 188.835938 C 171.578125 189.90625 170.007812 190.917969 167.960938 191.957031 C 169.019531 190.914062 170.5625 189.847656 172.625 188.835938 Z M 172.625 188.835938 " fill-opacity="1" fill-rule="nonzero"/><path fill="#e3af27" d="M 37.828125 168.292969 C 36.789062 167.75 35.820312 166.664062 34.773438 165.144531 C 35.757812 165.722656 36.828125 166.738281 37.828125 168.292969 Z M 37.828125 168.292969 " fill-opacity="1" fill-rule="nonzero"/><path fill="#e3af27" d="M 192.304688 194.570312 C 192.859375 193.597656 193.921875 192.617188 195.421875 191.542969 C 194.84375 192.488281 193.828125 193.523438 192.304688 194.570312 Z M 192.304688 194.570312 " fill-opacity="1" fill-rule="nonzero"/><path fill="#e3af27" d="M 181.183594 183.046875 C 180.601562 184.050781 179.492188 185.019531 177.933594 186.046875 C 178.539062 185.074219 179.597656 184.039062 181.183594 183.046875 Z M 181.183594 183.046875 " fill-opacity="1" fill-rule="nonzero"/><path fill="#e3af27" d="M 56.472656 185.558594 C 55.191406 185.355469 53.898438 184.632812 52.421875 183.492188 C 53.644531 183.726562 55.054688 184.382812 56.472656 185.558594 Z M 56.472656 185.558594 " fill-opacity="1" fill-rule="nonzero"/><path fill="#e3af27" d="M 184.332031 180.421875 C 184.078125 181.328125 183.320312 182.160156 182.128906 183.050781 C 182.40625 182.1875 183.121094 181.265625 184.332031 180.421875 Z M 184.332031 180.421875 " fill-opacity="1" fill-rule="nonzero"/><path fill="#e3af27" d="M 40.480469 171.382812 C 39.550781 171.152344 38.714844 170.417969 37.800781 169.253906 C 38.671875 169.507812 39.625 170.191406 40.480469 171.382812 Z M 40.480469 171.382812 " fill-opacity="1" fill-rule="nonzero"/><path fill="#e3af27" d="M 43.765625 196.417969 C 44.699219 196.519531 45.6875 197.136719 46.929688 198.125 C 46.0625 197.976562 44.941406 197.453125 43.765625 196.417969 Z M 43.765625 196.417969 " fill-opacity="1" fill-rule="nonzero"/><path fill="#e3af27" d="M 56.894531 204.808594 C 57.503906 204.652344 58.328125 204.902344 59.386719 205.515625 C 58.785156 205.660156 57.945312 205.433594 56.894531 204.808594 Z M 56.894531 204.808594 " fill-opacity="1" fill-rule="nonzero"/><path fill="#e3af27" d="M 59.121094 187.25 C 58.457031 187.402344 57.664062 187.105469 56.667969 186.421875 C 57.308594 186.289062 58.148438 186.546875 59.121094 187.25 Z M 59.121094 187.25 " fill-opacity="1" fill-rule="nonzero"/><path fill="#e3af27" d="M 177.019531 186.019531 C 176.84375 186.59375 176.207031 187.132812 175.128906 187.683594 C 175.3125 187.125 175.933594 186.554688 177.019531 186.019531 Z M 177.019531 186.019531 " fill-opacity="1" fill-rule="nonzero"/><path fill="#e3af27" d="M 41.207031 194.554688 C 41.863281 194.457031 42.613281 194.808594 43.546875 195.542969 C 42.925781 195.617188 42.113281 195.308594 41.207031 194.554688 Z M 41.207031 194.554688 " fill-opacity="1" fill-rule="nonzero"/><path fill="#e3af27" d="M 174.765625 205.90625 C 174.992188 205.386719 175.675781 204.894531 176.800781 204.394531 C 176.566406 204.902344 175.894531 205.417969 174.765625 205.90625 Z M 174.765625 205.90625 " fill-opacity="1" fill-rule="nonzero"/><path fill="#e3af27" d="M 15.070312 161.761719 C 15.578125 162.011719 16.042969 162.710938 16.511719 163.855469 C 16.015625 163.601562 15.523438 162.910156 15.070312 161.761719 Z M 15.070312 161.761719 " fill-opacity="1" fill-rule="nonzero"/><path fill="#e3af27" d="M 48.175781 199.203125 C 48.453125 199.066406 48.890625 199.253906 49.476562 199.78125 C 49.195312 199.921875 48.765625 199.726562 48.175781 199.203125 Z M 48.175781 199.203125 " fill-opacity="1" fill-rule="nonzero"/><path fill="#e3af27" d="M 32.351562 186.15625 C 32.648438 186.058594 33.0625 186.320312 33.589844 186.9375 C 33.292969 187.035156 32.882812 186.773438 32.351562 186.15625 Z M 32.351562 186.15625 " fill-opacity="1" fill-rule="nonzero"/><path fill="#e3af27" d="M 190.542969 195.828125 C 190.476562 195.546875 190.75 195.164062 191.378906 194.699219 C 191.597656 195.105469 191.3125 195.472656 190.542969 195.828125 Z M 190.542969 195.828125 " fill-opacity="1" fill-rule="nonzero"/><path fill="#e3af27" d="M 39.671875 193.1875 C 40.019531 193.023438 40.460938 193.246094 41.027344 193.828125 C 40.6875 193.980469 40.230469 193.777344 39.671875 193.1875 Z M 39.671875 193.1875 " fill-opacity="1" fill-rule="nonzero"/><path fill="#e3af27" d="M 38.171875 191.820312 C 38.5 191.679688 38.9375 191.914062 39.507812 192.507812 C 39.1875 192.644531 38.738281 192.417969 38.171875 191.820312 Z M 38.171875 191.820312 " fill-opacity="1" fill-rule="nonzero"/><path fill="#e3af27" d="M 196.195312 191.433594 C 196.101562 191.125 196.378906 190.71875 197.019531 190.207031 C 197.113281 190.511719 196.839844 190.921875 196.195312 191.433594 Z M 196.195312 191.433594 " fill-opacity="1" fill-rule="nonzero"/><path fill="#e3af27" d="M 36.675781 190.472656 C 36.976562 190.34375 37.414062 190.574219 37.988281 191.160156 C 37.6875 191.285156 37.25 191.058594 36.675781 190.472656 Z M 36.675781 190.472656 " fill-opacity="1" fill-rule="nonzero"/><path fill="#e3af27" d="M 30.914062 184.726562 C 31.210938 184.628906 31.628906 184.882812 32.164062 185.492188 C 31.867188 185.59375 31.453125 185.339844 30.914062 184.726562 Z M 30.914062 184.726562 " fill-opacity="1" fill-rule="nonzero"/><path fill="#e3af27" d="M 23.195312 135.542969 C 22.835938 135.664062 22.441406 135.390625 21.949219 134.753906 C 22.289062 134.644531 22.726562 134.894531 23.195312 135.542969 Z M 23.195312 135.542969 " fill-opacity="1" fill-rule="nonzero"/><path fill="#e3af27" d="M 41.886719 172.878906 C 41.507812 173.042969 41.085938 172.816406 40.570312 172.222656 C 40.933594 172.066406 41.386719 172.273438 41.886719 172.878906 Z M 41.886719 172.878906 " fill-opacity="1" fill-rule="nonzero"/><path fill="#e3af27" d="M 187.300781 177.628906 C 187.457031 178.007812 187.21875 178.429688 186.609375 178.9375 C 186.464844 178.574219 186.683594 178.125 187.300781 177.628906 Z M 187.300781 177.628906 " fill-opacity="1" fill-rule="nonzero"/><path fill="#e3af27" d="M 185.851562 179.058594 C 186 179.425781 185.753906 179.84375 185.140625 180.363281 C 185 180.011719 185.230469 179.558594 185.851562 179.058594 Z M 185.851562 179.058594 " fill-opacity="1" fill-rule="nonzero"/><path fill="#e3af27" d="M 28.082031 181.800781 C 28.390625 181.695312 28.808594 181.957031 29.339844 182.582031 C 29.03125 182.6875 28.609375 182.425781 28.082031 181.800781 Z M 28.082031 181.800781 " fill-opacity="1" fill-rule="nonzero"/><path fill="#e3af27" d="M 204.867188 182.84375 C 204.757812 182.539062 205.003906 182.109375 205.613281 181.566406 C 205.726562 181.875 205.476562 182.296875 204.867188 182.84375 Z M 204.867188 182.84375 " fill-opacity="1" fill-rule="nonzero"/><path fill="#e3af27" d="M 29.5 183.25 C 29.800781 183.15625 30.210938 183.425781 30.726562 184.058594 C 30.425781 184.152344 30.019531 183.882812 29.5 183.25 Z M 29.5 183.25 " fill-opacity="1" fill-rule="nonzero"/><path fill="#e3af27" d="M 203.464844 184.300781 C 203.359375 184.007812 203.605469 183.582031 204.207031 183.035156 C 204.3125 183.328125 204.066406 183.75 203.464844 184.300781 Z M 203.464844 184.300781 " fill-opacity="1" fill-rule="nonzero"/><path fill="#e3af27" d="M 197.691406 190.039062 C 197.597656 189.742188 197.863281 189.335938 198.484375 188.8125 C 198.578125 189.105469 198.316406 189.515625 197.691406 190.039062 Z M 197.691406 190.039062 " fill-opacity="1" fill-rule="nonzero"/><path fill="#e3af27" d="M 202.03125 185.742188 C 201.933594 185.453125 202.1875 185.039062 202.796875 184.503906 C 202.898438 184.796875 202.640625 185.210938 202.03125 185.742188 Z M 202.03125 185.742188 " fill-opacity="1" fill-rule="nonzero"/><path fill="#e3af27" d="M 200.601562 187.183594 C 200.5 186.890625 200.753906 186.476562 201.363281 185.945312 C 201.464844 186.238281 201.207031 186.648438 200.601562 187.183594 Z M 200.601562 187.183594 " fill-opacity="1" fill-rule="nonzero"/><path fill="#e3af27" d="M 33.78125 187.609375 C 34.074219 187.511719 34.488281 187.769531 35.011719 188.386719 C 34.714844 188.484375 34.308594 188.222656 33.78125 187.609375 Z M 33.78125 187.609375 " fill-opacity="1" fill-rule="nonzero"/><path fill="#e3af27" d="M 60.722656 188.550781 C 60.390625 188.722656 59.933594 188.527344 59.339844 187.972656 C 59.667969 187.800781 60.128906 187.992188 60.722656 188.550781 Z M 60.722656 188.550781 " fill-opacity="1" fill-rule="nonzero"/><path fill="#e3af27" d="M 174.335938 187.652344 C 174.433594 188.007812 174.140625 188.402344 173.46875 188.859375 C 173.375 188.511719 173.660156 188.101562 174.335938 187.652344 Z M 174.335938 187.652344 " fill-opacity="1" fill-rule="nonzero"/><path fill="#e3af27" d="M 199.15625 188.617188 C 199.058594 188.324219 199.316406 187.914062 199.929688 187.386719 C 200.027344 187.679688 199.765625 188.089844 199.15625 188.617188 Z M 199.15625 188.617188 " fill-opacity="1" fill-rule="nonzero"/><path fill="#e3af27" d="M 35.214844 189.058594 C 35.503906 188.957031 35.921875 189.207031 36.464844 189.808594 C 36.171875 189.910156 35.757812 189.660156 35.214844 189.058594 Z M 35.214844 189.058594 " fill-opacity="1" fill-rule="nonzero"/></svg>