<svg version="1.1" id="Layer_1" xmlns="http://www.w3.org/2000/svg" xmlns:xlink="http://www.w3.org/1999/xlink" x="0px" y="0px"
	 width="100%" viewBox="0 0 594 598" enable-background="new 0 0 594 598" xml:space="preserve">
<path fill="#020000" opacity="1.000000" stroke="none" 
	d="
M275.000000,1.000000 
	C290.020905,1.000000 305.041779,1.000000 320.691895,1.403126 
	C323.980560,1.871333 326.711121,1.566721 329.287689,2.062496 
	C344.170776,4.926239 359.092377,7.652267 373.861237,11.034733 
	C406.035736,18.403540 435.377319,32.653206 462.733307,50.596889 
	C482.241974,63.393269 500.701385,77.922195 515.642151,96.209045 
	C525.614319,108.414566 535.790771,120.512665 544.889648,133.357376 
	C556.899902,150.312027 566.171021,168.859741 573.729370,188.257446 
	C583.242310,212.671631 590.245300,237.693832 593.030334,263.818756 
	C593.500854,268.232330 594.334290,272.607239 595.000000,277.000000 
	C595.000000,292.020905 595.000000,307.041779 594.595520,322.693787 
	C593.461975,330.146454 593.250549,337.072632 591.897949,343.768250 
	C588.936523,358.428162 585.942017,373.121735 581.967224,387.527344 
	C575.669189,410.353088 566.096130,431.872498 554.002319,452.270172 
	C543.125183,470.615875 531.025391,488.036072 516.111755,503.364868 
	C509.349396,510.315491 502.823517,517.581543 495.451752,523.833618 
	C484.686188,532.964111 473.956116,542.473267 461.940979,549.713501 
	C444.660339,560.126709 426.684265,569.670959 408.191650,577.716431 
	C384.360443,588.084595 359.202576,594.518982 333.180908,597.040588 
	C329.095673,597.436462 325.059082,598.334290 321.000000,599.000000 
	C305.979095,599.000000 290.958221,599.000000 275.308105,598.596924 
	C272.019531,598.128662 269.289032,598.433289 266.712494,597.937500 
	C251.829407,595.073730 236.907837,592.347656 222.138931,588.965210 
	C189.964417,581.596497 160.622757,567.347046 133.266922,549.403259 
	C113.758362,536.606812 95.298721,522.078125 80.358093,503.791107 
	C70.386040,491.585510 60.209179,479.487701 51.110420,466.642914 
	C39.100353,449.688171 29.829063,431.140503 22.270792,411.742706 
	C12.757858,387.328491 5.754552,362.306305 2.969595,336.181305 
	C2.499102,331.767700 1.665721,327.392792 1.000001,323.000000 
	C1.000000,307.979095 1.000000,292.958221 1.404476,277.306213 
	C2.537987,269.853516 2.749491,262.927338 4.102075,256.231720 
	C7.063518,241.571808 10.057967,226.878250 14.032728,212.472626 
	C20.330734,189.646927 29.904049,168.127701 41.997627,147.730011 
	C52.874695,129.384155 64.974869,111.964249 79.888184,96.635216 
	C86.650421,89.684471 93.176445,82.418549 100.548180,76.166397 
	C111.313744,67.035843 122.043800,57.526733 134.058960,50.286503 
	C151.339600,39.873348 169.315643,30.329092 187.808258,22.283583 
	C211.639526,11.915399 236.797409,5.480979 262.819122,2.959432 
	C266.904358,2.563566 270.940918,1.665732 275.000000,1.000000 
M454.772705,538.305786 
	C472.472961,526.559692 488.957886,513.310974 503.229065,497.547577 
	C566.169739,428.025696 592.407959,346.884491 577.902771,253.901291 
	C568.048523,190.732224 539.981750,136.008469 492.987732,92.469620 
	C424.851166,29.342623 344.157013,3.456203 251.966705,18.150194 
	C189.500259,28.106573 135.989090,56.618217 92.552170,102.780441 
	C43.978878,154.401306 18.436399,216.259903 14.276766,286.809540 
	C12.238859,321.373505 17.336128,355.221344 28.085205,388.163940 
	C42.219070,431.479889 64.968475,469.662537 96.990158,502.102142 
	C122.674599,528.121765 152.541946,548.222900 186.162750,562.599854 
	C239.856461,585.560547 295.431488,592.033447 352.800903,580.518738 
	C389.262024,573.200500 423.067383,559.152283 454.772705,538.305786 
z"/>
<path fill="#FFFFFF" opacity="1.000000" stroke="none" 
	d="
M274.531342,1.000000 
	C270.940918,1.665732 266.904358,2.563566 262.819122,2.959432 
	C236.797409,5.480979 211.639526,11.915399 187.808258,22.283583 
	C169.315643,30.329092 151.339600,39.873348 134.058960,50.286503 
	C122.043800,57.526733 111.313744,67.035843 100.548180,76.166397 
	C93.176445,82.418549 86.650421,89.684471 79.888184,96.635216 
	C64.974869,111.964249 52.874695,129.384155 41.997627,147.730011 
	C29.904049,168.127701 20.330734,189.646927 14.032728,212.472626 
	C10.057967,226.878250 7.063518,241.571808 4.102075,256.231720 
	C2.749491,262.927338 2.537987,269.853516 1.404476,276.837555 
	C1.000000,185.073212 1.000000,93.146416 1.000000,1.000000 
	C92.020775,1.000000 183.041733,1.000000 274.531342,1.000000 
z"/>
<path fill="#FFFFFF" opacity="1.000000" stroke="none" 
	d="
M595.000000,276.531342 
	C594.334290,272.607239 593.500854,268.232330 593.030334,263.818756 
	C590.245300,237.693832 583.242310,212.671631 573.729370,188.257446 
	C566.171021,168.859741 556.899902,150.312027 544.889648,133.357376 
	C535.790771,120.512665 525.614319,108.414566 515.642151,96.209045 
	C500.701385,77.922195 482.241974,63.393269 462.733307,50.596889 
	C435.377319,32.653206 406.035736,18.403540 373.861237,11.034733 
	C359.092377,7.652267 344.170776,4.926239 329.287689,2.062496 
	C326.711121,1.566721 323.980560,1.871333 321.160553,1.403126 
	C412.260651,1.000000 503.521271,1.000000 595.000000,1.000000 
	C595.000000,92.687447 595.000000,184.375061 595.000000,276.531342 
z"/>
<path fill="#FFFFFF" opacity="1.000000" stroke="none" 
	d="
M1.000001,323.468658 
	C1.665721,327.392792 2.499102,331.767700 2.969595,336.181305 
	C5.754552,362.306305 12.757858,387.328491 22.270792,411.742706 
	C29.829063,431.140503 39.100353,449.688171 51.110420,466.642914 
	C60.209179,479.487701 70.386040,491.585510 80.358093,503.791107 
	C95.298721,522.078125 113.758362,536.606812 133.266922,549.403259 
	C160.622757,567.347046 189.964417,581.596497 222.138931,588.965210 
	C236.907837,592.347656 251.829407,595.073730 266.712494,597.937500 
	C269.289032,598.433289 272.019531,598.128662 274.839478,598.596924 
	C183.739319,599.000000 92.478645,599.000000 1.000000,599.000000 
	C1.000000,507.312561 1.000000,415.624939 1.000001,323.468658 
z"/>
<path fill="#FFFFFF" opacity="1.000000" stroke="none" 
	d="
M321.468658,599.000000 
	C325.059082,598.334290 329.095673,597.436462 333.180908,597.040588 
	C359.202576,594.518982 384.360443,588.084595 408.191650,577.716431 
	C426.684265,569.670959 444.660339,560.126709 461.940979,549.713501 
	C473.956116,542.473267 484.686188,532.964111 495.451752,523.833618 
	C502.823517,517.581543 509.349396,510.315491 516.111755,503.364868 
	C531.025391,488.036072 543.125183,470.615875 554.002319,452.270172 
	C566.096130,431.872498 575.669189,410.353088 581.967224,387.527344 
	C585.942017,373.121735 588.936523,358.428162 591.897949,343.768250 
	C593.250549,337.072632 593.461975,330.146454 594.595520,323.162415 
	C595.000000,414.926788 595.000000,506.853607 595.000000,599.000000 
	C503.979218,599.000000 412.958282,599.000000 321.468658,599.000000 
z"/>
<path fill="#E50909" opacity="1.000000" stroke="none" 
	d="
M454.478577,538.515991 
	C423.067383,559.152283 389.262024,573.200500 352.800903,580.518738 
	C295.431488,592.033447 239.856461,585.560547 186.162750,562.599854 
	C152.541946,548.222900 122.674599,528.121765 96.990158,502.102142 
	C64.968475,469.662537 42.219070,431.479889 28.085205,388.163940 
	C17.336128,355.221344 12.238859,321.373505 14.276766,286.809540 
	C18.436399,216.259903 43.978878,154.401306 92.552170,102.780441 
	C135.989090,56.618217 189.500259,28.106573 251.966705,18.150194 
	C344.157013,3.456203 424.851166,29.342623 492.987732,92.469620 
	C539.981750,136.008469 568.048523,190.732224 577.902771,253.901291 
	C592.407959,346.884491 566.169739,428.025696 503.229065,497.547577 
	C488.957886,513.310974 472.472961,526.559692 454.478577,538.515991 
M185.953964,381.438049 
	C162.239899,403.348633 145.520203,429.731567 135.119476,460.669464 
	C141.465424,463.068268 147.589066,465.383057 154.034332,467.819397 
	C155.307388,464.527710 156.332596,461.916443 157.328903,459.294220 
	C163.344635,443.461273 171.435852,428.741913 182.048752,415.570343 
	C229.284424,356.946625 313.513092,336.747070 381.758087,367.929474 
	C412.839233,382.131042 434.899384,404.700287 443.450989,438.744080 
	C444.611664,443.364594 445.319000,448.098969 446.258850,452.895905 
	C449.827148,452.328369 452.935730,451.841309 456.041687,451.337952 
	C459.284912,450.812378 462.525665,450.271088 465.890533,449.716400 
	C465.890533,448.679504 465.966339,448.023865 465.879700,447.390442 
	C460.923187,411.155060 442.989502,382.748901 413.021393,362.265900 
	C378.674042,338.789612 340.150177,330.779480 299.056213,333.853516 
	C256.320801,337.050354 218.720306,352.633820 185.953964,381.438049 
M384.256866,165.735458 
	C364.873108,168.845261 353.177124,188.460541 360.005432,206.407440 
	C365.437439,220.684372 381.588257,229.286301 395.413239,225.265579 
	C411.342529,220.632889 421.092010,205.146011 417.860504,189.608475 
	C414.818207,174.980637 399.688263,163.888321 384.256866,165.735458 
M202.025375,221.646713 
	C203.956100,220.077530 206.039856,218.661682 207.791809,216.913361 
	C216.695770,208.027817 219.210388,195.427216 214.419968,184.324707 
	C209.625336,173.212372 197.493195,164.977005 186.276794,165.220963 
	C174.054596,165.486786 162.175674,174.331192 158.012817,186.264801 
	C153.909897,198.026566 157.533691,210.474564 167.545227,219.009369 
	C177.340042,227.359421 189.814301,228.463531 202.025375,221.646713 
z"/>
<path fill="#030000" opacity="1.000000" stroke="none" 
	d="
M186.215210,381.199646 
	C218.720306,352.633820 256.320801,337.050354 299.056213,333.853516 
	C340.150177,330.779480 378.674042,338.789612 413.021393,362.265900 
	C442.989502,382.748901 460.923187,411.155060 465.879700,447.390442 
	C465.966339,448.023865 465.890533,448.679504 465.890533,449.716400 
	C462.525665,450.271088 459.284912,450.812378 456.041687,451.337952 
	C452.935730,451.841309 449.827148,452.328369 446.258850,452.895905 
	C445.319000,448.098969 444.611664,443.364594 443.450989,438.744080 
	C434.899384,404.700287 412.839233,382.131042 381.758087,367.929474 
	C313.513092,336.747070 229.284424,356.946625 182.048752,415.570343 
	C171.435852,428.741913 163.344635,443.461273 157.328903,459.294220 
	C156.332596,461.916443 155.307388,464.527710 154.034332,467.819397 
	C147.589066,465.383057 141.465424,463.068268 135.119476,460.669464 
	C145.520203,429.731567 162.239899,403.348633 186.215210,381.199646 
z"/>
<path fill="#020000" opacity="1.000000" stroke="none" 
	d="
M384.669464,165.656418 
	C399.688263,163.888321 414.818207,174.980637 417.860504,189.608475 
	C421.092010,205.146011 411.342529,220.632889 395.413239,225.265579 
	C381.588257,229.286301 365.437439,220.684372 360.005432,206.407440 
	C353.177124,188.460541 364.873108,168.845261 384.669464,165.656418 
z"/>
<path fill="#020000" opacity="1.000000" stroke="none" 
	d="
M201.701599,221.825333 
	C189.814301,228.463531 177.340042,227.359421 167.545227,219.009369 
	C157.533691,210.474564 153.909897,198.026566 158.012817,186.264801 
	C162.175674,174.331192 174.054596,165.486786 186.276794,165.220963 
	C197.493195,164.977005 209.625336,173.212372 214.419968,184.324707 
	C219.210388,195.427216 216.695770,208.027817 207.791809,216.913361 
	C206.039856,218.661682 203.956100,220.077530 201.701599,221.825333 
z"/>
</svg>