<svg version="1.1" id="Layer_1" xmlns="http://www.w3.org/2000/svg" xmlns:xlink="http://www.w3.org/1999/xlink" x="0px" y="0px"
	 width="100%" viewBox="0 0 2048 2048" enable-background="new 0 0 2048 2048" xml:space="preserve">
<path fill="#000000" opacity="1.000000" stroke="none" 
	d="
M1085.000000,2049.000000 
	C723.333313,2049.000000 362.166656,2049.000000 1.000000,2049.000000 
	C1.000000,1366.333374 1.000000,683.666687 1.000000,1.000000 
	C683.666687,1.000000 1366.333374,1.000000 2049.000000,1.000000 
	C2049.000000,683.666687 2049.000000,1366.333374 2049.000000,2049.000000 
	C1727.833374,2049.000000 1406.666626,2049.000000 1085.000000,2049.000000 
M733.858276,1916.621216 
	C739.245850,1918.331665 744.625549,1920.067505 750.022339,1921.748413 
	C798.125977,1936.730835 847.082031,1948.071533 897.104248,1954.088501 
	C927.821411,1957.783447 958.690796,1960.811035 989.580750,1962.329102 
	C1033.532593,1964.488892 1077.475952,1962.617920 1121.289307,1958.089722 
	C1172.077148,1952.840698 1222.083984,1943.545410 1271.345337,1930.123779 
	C1339.716064,1911.495605 1405.141479,1885.410400 1467.652466,1852.130493 
	C1529.944458,1818.967407 1587.565918,1778.950439 1640.823120,1732.620972 
	C1685.958740,1693.356445 1726.937988,1650.128296 1763.849609,1603.115112 
	C1808.561523,1546.166626 1845.911865,1484.660034 1876.310059,1418.910156 
	C1899.629150,1368.471924 1918.381226,1316.383789 1932.523926,1262.703247 
	C1945.991943,1211.583130 1954.950073,1159.625122 1959.410156,1106.885376 
	C1962.853760,1066.163086 1963.929077,1025.426758 1962.143555,984.612549 
	C1960.073730,937.299011 1954.528564,890.415222 1945.453613,843.904053 
	C1934.421631,787.363037 1917.941040,732.453186 1896.807739,678.947693 
	C1869.786133,610.534607 1835.177979,546.152710 1792.846436,485.940735 
	C1744.265625,416.840027 1687.228271,355.534119 1622.289551,301.645477 
	C1572.928101,260.683594 1519.771118,225.283875 1462.913452,195.464706 
	C1418.610474,172.229904 1372.841309,152.445206 1325.475586,136.409317 
	C1269.040283,117.302917 1211.343506,103.528656 1152.240601,95.578026 
	C1096.796631,88.119583 1041.175415,85.513344 985.295654,87.819206 
	C942.808655,89.572426 900.627258,94.145203 858.784424,101.652603 
	C808.725159,110.634178 759.786133,123.866898 711.843079,140.856735 
	C657.416870,160.144089 605.125671,184.082809 555.119934,212.914001 
	C512.767944,237.332321 472.625885,265.029449 434.676727,295.880310 
	C381.748779,338.908203 333.921906,387.011963 291.355194,440.299744 
	C258.648590,481.243958 229.693893,524.698181 204.285049,570.568298 
	C177.593613,618.753906 155.456116,668.956787 137.558228,720.961487 
	C117.690506,778.689941 103.482437,837.849365 95.469406,898.456909 
	C90.114410,938.960022 87.174126,979.607422 86.971725,1020.452698 
	C86.722862,1070.673706 90.454453,1120.594116 98.173241,1170.232056 
	C107.487648,1230.131104 122.871964,1288.418457 143.481857,1345.406250 
	C164.500534,1403.524414 191.123276,1458.958496 223.005600,1511.822754 
	C253.712082,1562.737305 289.292358,1610.128540 329.253937,1654.159790 
	C360.864655,1688.989990 394.803619,1721.402222 431.212006,1751.238037 
	C480.081360,1791.285400 532.459290,1825.990112 588.396179,1855.328857 
	C634.917847,1879.729370 683.195007,1899.994507 733.858276,1916.621216 
z"/>
<path fill="#FCEA2B" opacity="1.000000" stroke="none" 
	d="
M733.481201,1916.499878 
	C683.195007,1899.994507 634.917847,1879.729370 588.396179,1855.328857 
	C532.459290,1825.990112 480.081360,1791.285400 431.212006,1751.238037 
	C394.803619,1721.402222 360.864655,1688.989990 329.253937,1654.159790 
	C289.292358,1610.128540 253.712082,1562.737305 223.005600,1511.822754 
	C191.123276,1458.958496 164.500534,1403.524414 143.481857,1345.406250 
	C122.871964,1288.418457 107.487648,1230.131104 98.173241,1170.232056 
	C90.454453,1120.594116 86.722862,1070.673706 86.971725,1020.452698 
	C87.174126,979.607422 90.114410,938.960022 95.469406,898.456909 
	C103.482437,837.849365 117.690506,778.689941 137.558228,720.961487 
	C155.456116,668.956787 177.593613,618.753906 204.285049,570.568298 
	C229.693893,524.698181 258.648590,481.243958 291.355194,440.299744 
	C333.921906,387.011963 381.748779,338.908203 434.676727,295.880310 
	C472.625885,265.029449 512.767944,237.332321 555.119934,212.914001 
	C605.125671,184.082809 657.416870,160.144089 711.843079,140.856735 
	C759.786133,123.866898 808.725159,110.634178 858.784424,101.652603 
	C900.627258,94.145203 942.808655,89.572426 985.295654,87.819206 
	C1041.175415,85.513344 1096.796631,88.119583 1152.240601,95.578026 
	C1211.343506,103.528656 1269.040283,117.302917 1325.475586,136.409317 
	C1372.841309,152.445206 1418.610474,172.229904 1462.913452,195.464706 
	C1519.771118,225.283875 1572.928101,260.683594 1622.289551,301.645477 
	C1687.228271,355.534119 1744.265625,416.840027 1792.846436,485.940735 
	C1835.177979,546.152710 1869.786133,610.534607 1896.807739,678.947693 
	C1917.941040,732.453186 1934.421631,787.363037 1945.453613,843.904053 
	C1954.528564,890.415222 1960.073730,937.299011 1962.143555,984.612549 
	C1963.929077,1025.426758 1962.853760,1066.163086 1959.410156,1106.885376 
	C1954.950073,1159.625122 1945.991943,1211.583130 1932.523926,1262.703247 
	C1918.381226,1316.383789 1899.629150,1368.471924 1876.310059,1418.910156 
	C1845.911865,1484.660034 1808.561523,1546.166626 1763.849609,1603.115112 
	C1726.937988,1650.128296 1685.958740,1693.356445 1640.823120,1732.620972 
	C1587.565918,1778.950439 1529.944458,1818.967407 1467.652466,1852.130493 
	C1405.141479,1885.410400 1339.716064,1911.495605 1271.345337,1930.123779 
	C1222.083984,1943.545410 1172.077148,1952.840698 1121.289307,1958.089722 
	C1077.475952,1962.617920 1033.532593,1964.488892 989.580750,1962.329102 
	C958.690796,1960.811035 927.821411,1957.783447 897.104248,1954.088501 
	C847.082031,1948.071533 798.125977,1936.730835 750.022339,1921.748413 
	C744.625549,1920.067505 739.245850,1918.331665 733.481201,1916.499878 
M916.472290,1243.041260 
	C885.322388,1247.368164 854.051575,1250.979736 823.056335,1256.221313 
	C791.490234,1261.559204 760.798584,1270.427979 731.617432,1284.006714 
	C713.071106,1292.636719 704.062500,1308.839966 705.413391,1325.639771 
	C707.970581,1357.441162 738.109009,1374.205933 767.446045,1361.648682 
	C782.519287,1355.196777 798.160706,1349.647827 814.025757,1345.550415 
	C859.482849,1333.810303 906.021667,1328.904663 952.756104,1325.804565 
	C992.649902,1323.158325 1032.593628,1322.868286 1072.531616,1324.424438 
	C1113.985840,1326.039307 1155.258179,1329.768921 1196.145630,1336.993896 
	C1225.850830,1342.243042 1255.289917,1348.503906 1282.839844,1361.491211 
	C1290.467896,1365.087158 1298.537842,1366.706299 1307.100830,1365.790161 
	C1329.225830,1363.422974 1346.470093,1342.561157 1344.489136,1320.453735 
	C1342.908203,1302.810303 1333.380493,1291.016968 1317.721802,1283.671265 
	C1291.805420,1271.513306 1264.437500,1263.882324 1236.558960,1257.947144 
	C1199.871338,1250.136841 1162.779663,1244.801514 1125.376465,1242.376953 
	C1092.170044,1240.224365 1058.868774,1238.198975 1025.621216,1238.374023 
	C989.543823,1238.563843 953.480164,1241.361206 916.472290,1243.041260 
M1498.449341,984.949402 
	C1532.361450,949.963013 1544.107910,908.514709 1532.383423,861.373779 
	C1516.175415,796.205933 1449.819824,755.189697 1383.667114,768.367676 
	C1299.214111,785.191162 1255.285400,879.441772 1296.586304,955.202087 
	C1337.059814,1029.444458 1437.735596,1044.574585 1498.449341,984.949402 
M769.188660,895.463501 
	C768.331177,886.359985 768.343445,877.073547 766.474243,868.182739 
	C754.826660,812.780090 710.425903,772.709900 653.853088,766.842529 
	C613.779114,762.686279 578.668030,775.051880 550.800842,803.809265 
	C513.901855,841.886780 504.048279,887.281555 521.114502,937.580017 
	C540.398743,994.415161 602.225830,1030.495972 661.179565,1020.273254 
	C723.260315,1009.508301 767.013855,959.344177 769.188660,895.463501 
M1324.551147,707.996582 
	C1326.146484,707.098145 1327.746948,706.208313 1329.336670,705.299927 
	C1401.897827,663.835449 1474.477417,622.403259 1547.005493,580.880859 
	C1566.358521,569.801331 1585.976807,559.099854 1604.677124,546.994812 
	C1617.979370,538.383911 1623.337402,524.508789 1621.575562,508.826477 
	C1619.799316,493.013519 1611.351562,481.254120 1596.663574,474.554840 
	C1581.670654,467.716431 1567.635986,470.755066 1553.844360,478.660461 
	C1473.420166,524.759888 1392.898926,570.690002 1312.442627,616.733765 
	C1293.525757,627.559570 1274.322021,637.962585 1256.000977,649.728882 
	C1238.388916,661.040039 1233.661987,683.339905 1243.053345,703.394043 
	C1250.999268,720.361389 1272.468384,730.823547 1290.983398,724.739990 
	C1302.508545,720.952942 1312.965332,713.914185 1324.551147,707.996582 
M807.390015,665.220398 
	C803.149841,656.764465 796.688171,650.521362 788.513977,645.852722 
	C725.166931,609.671997 661.846802,573.444031 598.512207,537.241516 
	C563.808350,517.404541 529.104736,497.566925 494.376923,477.771820 
	C475.977966,467.284241 455.803589,468.779388 442.458221,481.510590 
	C420.184204,502.759613 424.207214,535.715271 450.972015,551.143860 
	C458.618866,555.551819 466.296692,559.906006 473.959778,564.285828 
	C564.906921,616.266785 655.840759,668.271057 746.812500,720.208984 
	C764.803894,730.480713 784.774170,728.394287 799.141357,713.780029 
	C812.600342,700.089661 815.311340,683.729065 807.390015,665.220398 
z"/>
<path fill="#020200" opacity="1.000000" stroke="none" 
	d="
M916.941406,1243.031372 
	C953.480164,1241.361206 989.543823,1238.563843 1025.621216,1238.374023 
	C1058.868774,1238.198975 1092.170044,1240.224365 1125.376465,1242.376953 
	C1162.779663,1244.801514 1199.871338,1250.136841 1236.558960,1257.947144 
	C1264.437500,1263.882324 1291.805420,1271.513306 1317.721802,1283.671265 
	C1333.380493,1291.016968 1342.908203,1302.810303 1344.489136,1320.453735 
	C1346.470093,1342.561157 1329.225830,1363.422974 1307.100830,1365.790161 
	C1298.537842,1366.706299 1290.467896,1365.087158 1282.839844,1361.491211 
	C1255.289917,1348.503906 1225.850830,1342.243042 1196.145630,1336.993896 
	C1155.258179,1329.768921 1113.985840,1326.039307 1072.531616,1324.424438 
	C1032.593628,1322.868286 992.649902,1323.158325 952.756104,1325.804565 
	C906.021667,1328.904663 859.482849,1333.810303 814.025757,1345.550415 
	C798.160706,1349.647827 782.519287,1355.196777 767.446045,1361.648682 
	C738.109009,1374.205933 707.970581,1357.441162 705.413391,1325.639771 
	C704.062500,1308.839966 713.071106,1292.636719 731.617432,1284.006714 
	C760.798584,1270.427979 791.490234,1261.559204 823.056335,1256.221313 
	C854.051575,1250.979736 885.322388,1247.368164 916.941406,1243.031372 
z"/>
<path fill="#010100" opacity="1.000000" stroke="none" 
	d="
M1498.207275,985.207886 
	C1437.735596,1044.574585 1337.059814,1029.444458 1296.586304,955.202087 
	C1255.285400,879.441772 1299.214111,785.191162 1383.667114,768.367676 
	C1449.819824,755.189697 1516.175415,796.205933 1532.383423,861.373779 
	C1544.107910,908.514709 1532.361450,949.963013 1498.207275,985.207886 
z"/>
<path fill="#010100" opacity="1.000000" stroke="none" 
	d="
M769.188721,895.951172 
	C767.013855,959.344177 723.260315,1009.508301 661.179565,1020.273254 
	C602.225830,1030.495972 540.398743,994.415161 521.114502,937.580017 
	C504.048279,887.281555 513.901855,841.886780 550.800842,803.809265 
	C578.668030,775.051880 613.779114,762.686279 653.853088,766.842529 
	C710.425903,772.709900 754.826660,812.780090 766.474243,868.182739 
	C768.343445,877.073547 768.331177,886.359985 769.188721,895.951172 
z"/>
<path fill="#020200" opacity="1.000000" stroke="none" 
	d="
M1324.226318,708.165771 
	C1312.965332,713.914185 1302.508545,720.952942 1290.983398,724.739990 
	C1272.468384,730.823547 1250.999268,720.361389 1243.053345,703.394043 
	C1233.661987,683.339905 1238.388916,661.040039 1256.000977,649.728882 
	C1274.322021,637.962585 1293.525757,627.559570 1312.442627,616.733765 
	C1392.898926,570.690002 1473.420166,524.759888 1553.844360,478.660461 
	C1567.635986,470.755066 1581.670654,467.716431 1596.663574,474.554840 
	C1611.351562,481.254120 1619.799316,493.013519 1621.575562,508.826477 
	C1623.337402,524.508789 1617.979370,538.383911 1604.677124,546.994812 
	C1585.976807,559.099854 1566.358521,569.801331 1547.005493,580.880859 
	C1474.477417,622.403259 1401.897827,663.835449 1329.336670,705.299927 
	C1327.746948,706.208313 1326.146484,707.098145 1324.226318,708.165771 
z"/>
<path fill="#020200" opacity="1.000000" stroke="none" 
	d="
M807.562805,665.555664 
	C815.311340,683.729065 812.600342,700.089661 799.141357,713.780029 
	C784.774170,728.394287 764.803894,730.480713 746.812500,720.208984 
	C655.840759,668.271057 564.906921,616.266785 473.959778,564.285828 
	C466.296692,559.906006 458.618866,555.551819 450.972015,551.143860 
	C424.207214,535.715271 420.184204,502.759613 442.458221,481.510590 
	C455.803589,468.779388 475.977966,467.284241 494.376923,477.771820 
	C529.104736,497.566925 563.808350,517.404541 598.512207,537.241516 
	C661.846802,573.444031 725.166931,609.671997 788.513977,645.852722 
	C796.688171,650.521362 803.149841,656.764465 807.562805,665.555664 
z"/>
</svg>