<svg version="1.1" id="Layer_1" xmlns="http://www.w3.org/2000/svg" xmlns:xlink="http://www.w3.org/1999/xlink" x="0px" y="0px"
	 width="100%" viewBox="0 0 2118 2116" enable-background="new 0 0 2118 2116" xml:space="preserve">
<path fill="#000000" opacity="1.000000" stroke="none" 
	d="
M1234.000000,2118.000000 
	C822.714966,2118.000000 412.429993,2118.000000 2.072493,2118.000000 
	C2.072493,1412.798096 2.072493,707.596130 2.072493,2.197103 
	C707.785461,2.197103 1413.570923,2.197103 2119.678223,2.197103 
	C2119.678223,707.333191 2119.678223,1412.666626 2119.678223,2118.000000 
	C1824.928711,2118.000000 1529.964355,2118.000000 1234.000000,2118.000000 
M1313.094482,1956.131836 
	C1363.701904,1940.410522 1413.204956,1921.671997 1460.440918,1897.696411 
	C1491.259644,1882.053589 1521.270752,1864.647095 1550.730103,1846.543945 
	C1585.902832,1824.929688 1619.431030,1800.765015 1651.107300,1774.223999 
	C1684.046509,1746.624512 1714.972656,1716.883667 1744.234497,1685.371094 
	C1767.585327,1660.224243 1789.643677,1633.981201 1809.720459,1606.239990 
	C1836.646240,1569.034668 1861.745850,1530.663452 1883.603516,1490.066650 
	C1915.141846,1431.490112 1939.868042,1370.254517 1959.485840,1306.891602 
	C1982.306885,1233.182739 1994.659790,1157.534424 1997.521851,1080.493042 
	C1999.349609,1031.291260 2000.212280,981.984375 1994.260254,932.930786 
	C1990.901489,905.250305 1987.463867,877.538940 1982.692383,850.079407 
	C1975.224976,807.105652 1963.587158,765.120239 1949.479370,723.852295 
	C1943.564697,706.550842 1937.779175,689.151855 1930.714966,672.308777 
	C1919.011841,644.405212 1906.439697,616.905457 1893.045166,589.705750 
	C1872.065308,547.103210 1847.244019,506.940887 1819.678467,468.563721 
	C1784.891724,420.132904 1746.740112,374.365936 1702.514771,334.050140 
	C1683.592163,316.800262 1664.726440,299.456268 1645.182129,282.926819 
	C1608.003540,251.483536 1567.958374,224.085083 1526.001831,199.334244 
	C1484.635376,174.931534 1441.841675,153.442078 1397.501343,135.163193 
	C1376.006592,126.302269 1353.798828,119.076416 1331.661743,111.886909 
	C1272.421143,92.647202 1212.181519,77.498131 1150.002197,71.725113 
	C1114.979492,68.473434 1079.832642,66.424103 1044.704712,64.512695 
	C1032.480469,63.847530 1020.144287,65.204834 1007.860535,65.672668 
	C990.588379,66.330498 973.293945,66.662720 956.052551,67.796005 
	C938.497986,68.949867 920.882874,70.127678 903.492798,72.659050 
	C855.106445,79.702347 807.502686,90.297836 760.387024,103.610199 
	C692.763855,122.716911 628.873474,150.417953 567.199219,183.645782 
	C512.778870,212.965454 462.837494,248.851730 414.889008,287.676971 
	C374.932343,320.031006 338.671844,356.243439 305.044128,394.953949 
	C284.787109,418.272766 266.004730,442.976288 247.838089,467.986145 
	C208.012985,522.812988 174.351013,581.283630 147.503082,643.582397 
	C126.005051,693.467041 107.910767,744.540466 95.141991,797.372559 
	C85.772865,836.138184 78.551544,875.331055 73.826950,914.965942 
	C73.014198,921.784119 70.704872,928.447205 70.153282,935.268188 
	C69.137260,947.832214 68.620567,960.455566 68.418907,973.062622 
	C67.988869,999.946594 67.295204,1026.848022 67.838097,1053.719604 
	C68.327576,1077.946899 70.509918,1102.135376 71.601692,1126.356445 
	C72.848122,1154.008667 78.470604,1181.051392 83.096458,1208.185425 
	C90.876160,1253.818970 104.055214,1298.093140 118.260727,1342.133789 
	C132.302277,1385.666016 150.052063,1427.637329 170.735336,1468.230469 
	C185.509018,1497.225342 203.019394,1524.868774 220.045670,1552.663574 
	C252.335312,1605.375732 291.724915,1652.676636 333.596466,1697.889160 
	C359.619415,1725.988403 388.073700,1751.663818 417.496094,1776.191650 
	C476.855011,1825.675781 541.867249,1866.426514 611.020020,1900.699585 
	C650.745789,1920.388062 692.016052,1936.298706 734.103088,1950.085327 
	C771.729797,1962.410889 810.075623,1971.919434 849.007385,1979.280151 
	C897.063904,1988.365967 945.344116,1995.559814 994.300232,1996.184204 
	C1050.504150,1996.901245 1106.721924,1997.299683 1162.540527,1988.341675 
	C1212.766602,1980.281250 1262.913086,1972.030518 1313.094482,1956.131836 
z"/>
<path fill="#00FF00" opacity="1.000000" stroke="none" 
	d="
M1312.315186,1956.335571 
	C1262.913086,1972.030518 1212.766602,1980.281250 1162.540527,1988.341675 
	C1106.721924,1997.299683 1050.504150,1996.901245 994.300232,1996.184204 
	C945.344116,1995.559814 897.063904,1988.365967 849.007385,1979.280151 
	C810.075623,1971.919434 771.729797,1962.410889 734.103088,1950.085327 
	C692.016052,1936.298706 650.745789,1920.388062 611.020020,1900.699585 
	C541.867249,1866.426514 476.855011,1825.675781 417.496094,1776.191650 
	C388.073700,1751.663818 359.619415,1725.988403 333.596466,1697.889160 
	C291.724915,1652.676636 252.335312,1605.375732 220.045670,1552.663574 
	C203.019394,1524.868774 185.509018,1497.225342 170.735336,1468.230469 
	C150.052063,1427.637329 132.302277,1385.666016 118.260727,1342.133789 
	C104.055214,1298.093140 90.876160,1253.818970 83.096458,1208.185425 
	C78.470604,1181.051392 72.848122,1154.008667 71.601692,1126.356445 
	C70.509918,1102.135376 68.327576,1077.946899 67.838097,1053.719604 
	C67.295204,1026.848022 67.988869,999.946594 68.418907,973.062622 
	C68.620567,960.455566 69.137260,947.832214 70.153282,935.268188 
	C70.704872,928.447205 73.014198,921.784119 73.826950,914.965942 
	C78.551544,875.331055 85.772865,836.138184 95.141991,797.372559 
	C107.910767,744.540466 126.005051,693.467041 147.503082,643.582397 
	C174.351013,581.283630 208.012985,522.812988 247.838089,467.986145 
	C266.004730,442.976288 284.787109,418.272766 305.044128,394.953949 
	C338.671844,356.243439 374.932343,320.031006 414.889008,287.676971 
	C462.837494,248.851730 512.778870,212.965454 567.199219,183.645782 
	C628.873474,150.417953 692.763855,122.716911 760.387024,103.610199 
	C807.502686,90.297836 855.106445,79.702347 903.492798,72.659050 
	C920.882874,70.127678 938.497986,68.949867 956.052551,67.796005 
	C973.293945,66.662720 990.588379,66.330498 1007.860535,65.672668 
	C1020.144287,65.204834 1032.480469,63.847530 1044.704712,64.512695 
	C1079.832642,66.424103 1114.979492,68.473434 1150.002197,71.725113 
	C1212.181519,77.498131 1272.421143,92.647202 1331.661743,111.886909 
	C1353.798828,119.076416 1376.006592,126.302269 1397.501343,135.163193 
	C1441.841675,153.442078 1484.635376,174.931534 1526.001831,199.334244 
	C1567.958374,224.085083 1608.003540,251.483536 1645.182129,282.926819 
	C1664.726440,299.456268 1683.592163,316.800262 1702.514771,334.050140 
	C1746.740112,374.365936 1784.891724,420.132904 1819.678467,468.563721 
	C1847.244019,506.940887 1872.065308,547.103210 1893.045166,589.705750 
	C1906.439697,616.905457 1919.011841,644.405212 1930.714966,672.308777 
	C1937.779175,689.151855 1943.564697,706.550842 1949.479370,723.852295 
	C1963.587158,765.120239 1975.224976,807.105652 1982.692383,850.079407 
	C1987.463867,877.538940 1990.901489,905.250305 1994.260254,932.930786 
	C2000.212280,981.984375 1999.349609,1031.291260 1997.521851,1080.493042 
	C1994.659790,1157.534424 1982.306885,1233.182739 1959.485840,1306.891602 
	C1939.868042,1370.254517 1915.141846,1431.490112 1883.603516,1490.066650 
	C1861.745850,1530.663452 1836.646240,1569.034668 1809.720459,1606.239990 
	C1789.643677,1633.981201 1767.585327,1660.224243 1744.234497,1685.371094 
	C1714.972656,1716.883667 1684.046509,1746.624512 1651.107300,1774.223999 
	C1619.431030,1800.765015 1585.902832,1824.929688 1550.730103,1846.543945 
	C1521.270752,1864.647095 1491.259644,1882.053589 1460.440918,1897.696411 
	C1413.204956,1921.671997 1363.701904,1940.410522 1312.315186,1956.335571 
M1326.161499,1685.200439 
	C1335.200806,1679.577637 1344.175171,1673.847412 1353.290161,1668.350098 
	C1400.815796,1639.686646 1440.952881,1602.200073 1478.362427,1561.816528 
	C1509.199097,1528.528198 1535.137695,1491.465698 1557.486694,1451.859741 
	C1592.610962,1389.614502 1617.366577,1323.682251 1631.171143,1253.492432 
	C1638.829956,1214.550537 1642.337891,1175.263550 1643.490845,1135.737427 
	C1643.974365,1119.158936 1642.605713,1102.519287 1641.889404,1085.915527 
	C1641.390381,1074.350220 1640.568726,1062.798950 1639.879028,1051.033813 
	C1649.936279,1045.767090 1659.700684,1040.808105 1669.320190,1035.582397 
	C1686.660034,1026.162842 1695.858398,1005.303528 1691.248413,986.267639 
	C1686.376831,966.151245 1669.288330,952.266541 1648.882935,951.636414 
	C1639.597778,951.349792 1631.171753,954.116089 1623.055054,958.205139 
	C1582.912842,978.427795 1542.763672,998.636780 1502.668945,1018.953247 
	C1498.534302,1021.048279 1494.380493,1023.391113 1490.857544,1026.357544 
	C1476.982300,1038.041382 1470.354004,1052.527344 1473.848633,1071.056152 
	C1478.545532,1095.958496 1511.150269,1118.699097 1540.769653,1101.072876 
	C1547.515625,1097.058228 1554.796997,1093.943604 1563.781006,1089.437134 
	C1563.781006,1096.590942 1563.488647,1101.799561 1563.828369,1106.966431 
	C1566.065186,1140.978638 1563.661499,1174.896484 1559.162354,1208.467529 
	C1553.591553,1250.034302 1544.064453,1290.883667 1527.884888,1329.844604 
	C1519.723022,1349.499023 1512.514282,1369.697388 1502.569458,1388.425781 
	C1490.264893,1411.598022 1476.042358,1433.806152 1461.794922,1455.880005 
	C1439.087524,1491.061157 1411.089233,1521.991577 1380.185181,1549.950073 
	C1333.173950,1592.480591 1280.051147,1625.438477 1220.940063,1649.112793 
	C1170.132324,1669.461426 1117.680664,1681.849121 1063.309448,1685.338867 
	C1030.478027,1687.446045 997.435791,1688.005615 964.604614,1683.684204 
	C930.618164,1679.210815 897.196228,1672.406738 864.467041,1661.853394 
	C825.901428,1649.417969 789.614807,1632.001587 755.046265,1611.398071 
	C712.592224,1586.094482 673.927124,1555.503906 641.100159,1518.303223 
	C621.530945,1496.126953 601.688904,1473.882324 584.909119,1449.634155 
	C565.070618,1420.965820 547.716003,1390.452026 534.730591,1357.834839 
	C520.079407,1321.033447 506.428528,1283.848022 499.248779,1244.740479 
	C495.895386,1226.474854 494.310913,1207.891846 491.455383,1189.525635 
	C486.776428,1159.431763 487.625000,1129.150269 487.779694,1098.883179 
	C487.790863,1096.694458 488.392426,1094.508789 488.773529,1091.960571 
	C497.443176,1092.133179 503.660736,1097.103027 510.259277,1100.556885 
	C520.165222,1105.742065 529.885437,1108.797363 541.356506,1106.388550 
	C572.182739,1099.915161 587.348877,1069.031616 573.660034,1041.089478 
	C568.480896,1030.517700 559.300232,1023.856506 548.950806,1018.654602 
	C509.385345,998.768066 469.874756,978.772156 430.283600,958.937012 
	C425.551941,956.566467 420.599579,954.338318 415.494812,953.066345 
	C399.806305,949.157043 385.599518,952.822754 373.835022,963.759216 
	C350.707214,985.259399 355.822571,1021.371887 383.773987,1036.130859 
	C393.149506,1041.081299 402.522461,1046.036377 412.391510,1051.250854 
	C412.130371,1057.056519 412.023682,1062.679077 411.596466,1068.277222 
	C410.589142,1081.477051 408.784943,1094.649658 408.463623,1107.861328 
	C407.776062,1136.127075 408.278992,1164.377197 411.616516,1192.531250 
	C417.064667,1238.490234 425.150330,1283.788940 439.861542,1327.894165 
	C452.436554,1365.594849 467.879456,1401.913696 486.641846,1436.876221 
	C513.692810,1487.283691 546.610474,1533.493652 585.754395,1575.252075 
	C620.567566,1612.390259 659.745239,1644.314453 702.830872,1671.221680 
	C768.027405,1711.937134 837.879822,1741.266724 913.858154,1755.226685 
	C941.995361,1760.396606 970.229370,1764.703613 998.800293,1765.526855 
	C1041.063232,1766.744995 1083.340942,1765.928101 1124.968140,1757.540771 
	C1150.685791,1752.359009 1176.433350,1746.810425 1201.580444,1739.427002 
	C1244.805420,1726.735596 1286.049438,1708.997070 1326.161499,1685.200439 
M753.407104,406.268951 
	C730.430359,422.903687 714.438232,445.256897 702.177185,470.333496 
	C679.798767,516.102417 669.794434,565.092468 666.445190,615.546021 
	C664.393433,646.453674 665.731079,677.328613 670.054565,708.051147 
	C675.935913,749.843262 686.723389,790.117981 706.994568,827.419678 
	C718.213623,848.064270 731.953186,866.742432 751.224731,880.741211 
	C763.549866,889.694153 776.890137,895.664001 792.518555,896.456421 
	C813.048340,897.497314 830.221069,889.884583 845.761230,877.512329 
	C866.562256,860.951660 880.567566,839.104675 891.776123,815.545654 
	C912.465820,772.058655 922.009766,725.577454 925.433838,677.888184 
	C927.241394,652.712402 926.871948,627.431702 924.531006,602.150269 
	C921.172241,565.875671 914.262268,530.466980 901.569092,496.331543 
	C890.693176,467.083038 876.156982,439.910370 853.370178,417.915558 
	C843.695679,408.577240 832.795471,401.000977 820.115051,396.337097 
	C796.698120,387.724365 775.031433,392.215729 753.407104,406.268951 
M1177.815918,833.116943 
	C1187.105713,849.422241 1198.441284,864.073669 1212.804810,876.258606 
	C1241.413818,900.528259 1276.244263,904.032715 1307.296875,881.936218 
	C1330.153564,865.671692 1345.763550,843.393921 1357.833496,818.619568 
	C1380.907227,771.258850 1390.702271,720.518066 1393.425171,668.370544 
	C1394.462280,648.508850 1393.331787,628.475769 1392.239868,608.572876 
	C1389.779907,563.730591 1380.104370,520.474060 1361.965454,479.255768 
	C1351.266235,454.943298 1337.327515,432.814636 1317.410278,414.930725 
	C1287.801147,388.344238 1252.203857,383.218750 1218.449951,408.153870 
	C1195.834473,424.860443 1180.813721,447.540741 1168.813721,472.213837 
	C1147.902100,515.210022 1137.813110,561.263123 1134.565674,608.652222 
	C1131.902710,647.511719 1133.047485,686.378540 1140.160278,724.912048 
	C1147.090088,762.453613 1158.093994,798.505615 1177.815918,833.116943 
z"/>
<path fill="#000200" opacity="1.000000" stroke="none" 
	d="
M1325.502808,1685.533203 
	C1286.049438,1708.997070 1244.805420,1726.735596 1201.580444,1739.427002 
	C1176.433350,1746.810425 1150.685791,1752.359009 1124.968140,1757.540771 
	C1083.340942,1765.928101 1041.063232,1766.744995 998.800293,1765.526855 
	C970.229370,1764.703613 941.995361,1760.396606 913.858154,1755.226685 
	C837.879822,1741.266724 768.027405,1711.937134 702.830872,1671.221680 
	C659.745239,1644.314453 620.567566,1612.390259 585.754395,1575.252075 
	C546.610474,1533.493652 513.692810,1487.283691 486.641846,1436.876221 
	C467.879456,1401.913696 452.436554,1365.594849 439.861542,1327.894165 
	C425.150330,1283.788940 417.064667,1238.490234 411.616516,1192.531250 
	C408.278992,1164.377197 407.776062,1136.127075 408.463623,1107.861328 
	C408.784943,1094.649658 410.589142,1081.477051 411.596466,1068.277222 
	C412.023682,1062.679077 412.130371,1057.056519 412.391510,1051.250854 
	C402.522461,1046.036377 393.149506,1041.081299 383.773987,1036.130859 
	C355.822571,1021.371887 350.707214,985.259399 373.835022,963.759216 
	C385.599518,952.822754 399.806305,949.157043 415.494812,953.066345 
	C420.599579,954.338318 425.551941,956.566467 430.283600,958.937012 
	C469.874756,978.772156 509.385345,998.768066 548.950806,1018.654602 
	C559.300232,1023.856506 568.480896,1030.517700 573.660034,1041.089478 
	C587.348877,1069.031616 572.182739,1099.915161 541.356506,1106.388550 
	C529.885437,1108.797363 520.165222,1105.742065 510.259277,1100.556885 
	C503.660736,1097.103027 497.443176,1092.133179 488.773529,1091.960571 
	C488.392426,1094.508789 487.790863,1096.694458 487.779694,1098.883179 
	C487.625000,1129.150269 486.776428,1159.431763 491.455383,1189.525635 
	C494.310913,1207.891846 495.895386,1226.474854 499.248779,1244.740479 
	C506.428528,1283.848022 520.079407,1321.033447 534.730591,1357.834839 
	C547.716003,1390.452026 565.070618,1420.965820 584.909119,1449.634155 
	C601.688904,1473.882324 621.530945,1496.126953 641.100159,1518.303223 
	C673.927124,1555.503906 712.592224,1586.094482 755.046265,1611.398071 
	C789.614807,1632.001587 825.901428,1649.417969 864.467041,1661.853394 
	C897.196228,1672.406738 930.618164,1679.210815 964.604614,1683.684204 
	C997.435791,1688.005615 1030.478027,1687.446045 1063.309448,1685.338867 
	C1117.680664,1681.849121 1170.132324,1669.461426 1220.940063,1649.112793 
	C1280.051147,1625.438477 1333.173950,1592.480591 1380.185181,1549.950073 
	C1411.089233,1521.991577 1439.087524,1491.061157 1461.794922,1455.880005 
	C1476.042358,1433.806152 1490.264893,1411.598022 1502.569458,1388.425781 
	C1512.514282,1369.697388 1519.723022,1349.499023 1527.884888,1329.844604 
	C1544.064453,1290.883667 1553.591553,1250.034302 1559.162354,1208.467529 
	C1563.661499,1174.896484 1566.065186,1140.978638 1563.828369,1106.966431 
	C1563.488647,1101.799561 1563.781006,1096.590942 1563.781006,1089.437134 
	C1554.796997,1093.943604 1547.515625,1097.058228 1540.769653,1101.072876 
	C1511.150269,1118.699097 1478.545532,1095.958496 1473.848633,1071.056152 
	C1470.354004,1052.527344 1476.982300,1038.041382 1490.857544,1026.357544 
	C1494.380493,1023.391113 1498.534302,1021.048279 1502.668945,1018.953247 
	C1542.763672,998.636780 1582.912842,978.427795 1623.055054,958.205139 
	C1631.171753,954.116089 1639.597778,951.349792 1648.882935,951.636414 
	C1669.288330,952.266541 1686.376831,966.151245 1691.248413,986.267639 
	C1695.858398,1005.303528 1686.660034,1026.162842 1669.320190,1035.582397 
	C1659.700684,1040.808105 1649.936279,1045.767090 1639.879028,1051.033813 
	C1640.568726,1062.798950 1641.390381,1074.350220 1641.889404,1085.915527 
	C1642.605713,1102.519287 1643.974365,1119.158936 1643.490845,1135.737427 
	C1642.337891,1175.263550 1638.829956,1214.550537 1631.171143,1253.492432 
	C1617.366577,1323.682251 1592.610962,1389.614502 1557.486694,1451.859741 
	C1535.137695,1491.465698 1509.199097,1528.528198 1478.362427,1561.816528 
	C1440.952881,1602.200073 1400.815796,1639.686646 1353.290161,1668.350098 
	C1344.175171,1673.847412 1335.200806,1679.577637 1325.502808,1685.533203 
z"/>
<path fill="#000100" opacity="1.000000" stroke="none" 
	d="
M754.030334,405.907227 
	C775.031433,392.215729 796.698120,387.724365 820.115051,396.337097 
	C832.795471,401.000977 843.695679,408.577240 853.370178,417.915558 
	C876.156982,439.910370 890.693176,467.083038 901.569092,496.331543 
	C914.262268,530.466980 921.172241,565.875671 924.531006,602.150269 
	C926.871948,627.431702 927.241394,652.712402 925.433838,677.888184 
	C922.009766,725.577454 912.465820,772.058655 891.776123,815.545654 
	C880.567566,839.104675 866.562256,860.951660 845.761230,877.512329 
	C830.221069,889.884583 813.048340,897.497314 792.518555,896.456421 
	C776.890137,895.664001 763.549866,889.694153 751.224731,880.741211 
	C731.953186,866.742432 718.213623,848.064270 706.994568,827.419678 
	C686.723389,790.117981 675.935913,749.843262 670.054565,708.051147 
	C665.731079,677.328613 664.393433,646.453674 666.445190,615.546021 
	C669.794434,565.092468 679.798767,516.102417 702.177185,470.333496 
	C714.438232,445.256897 730.430359,422.903687 754.030334,405.907227 
z"/>
<path fill="#000100" opacity="1.000000" stroke="none" 
	d="
M1177.438477,832.484985 
	C1158.093994,798.505615 1147.090088,762.453613 1140.160278,724.912048 
	C1133.047485,686.378540 1131.902710,647.511719 1134.565674,608.652222 
	C1137.813110,561.263123 1147.902100,515.210022 1168.813721,472.213837 
	C1180.813721,447.540741 1195.834473,424.860443 1218.449951,408.153870 
	C1252.203857,383.218750 1287.801147,388.344238 1317.410278,414.930725 
	C1337.327515,432.814636 1351.266235,454.943298 1361.965454,479.255768 
	C1380.104370,520.474060 1389.779907,563.730591 1392.239868,608.572876 
	C1393.331787,628.475769 1394.462280,648.508850 1393.425171,668.370544 
	C1390.702271,720.518066 1380.907227,771.258850 1357.833496,818.619568 
	C1345.763550,843.393921 1330.153564,865.671692 1307.296875,881.936218 
	C1276.244263,904.032715 1241.413818,900.528259 1212.804810,876.258606 
	C1198.441284,864.073669 1187.105713,849.422241 1177.438477,832.484985 
z"/>
</svg>