<svg xmlns="http://www.w3.org/2000/svg" xmlns:xlink="http://www.w3.org/1999/xlink" width="320" zoomAndPan="magnify" viewBox="0 0 240 239.999995" height="320" preserveAspectRatio="xMidYMid meet" version="1.0"><defs><clipPath id="9ad47e24f8"><path d="M -110.75 -49.019531 L -110.75 284.75 C -110.75 321.203125 -81.203125 350.75 -44.75 350.75 L 289.019531 350.75 C 325.46875 350.75 355.019531 321.203125 355.019531 284.75 L 355.019531 -49.019531 C 355.019531 -85.46875 325.46875 -115.019531 289.019531 -115.019531 L -44.75 -115.019531 C -81.203125 -115.019531 -110.75 -85.46875 -110.75 -49.019531 Z M -110.75 -49.019531 " clip-rule="nonzero"/></clipPath><clipPath id="3282e60d6f"><path d="M 51 148 L 197 148 L 197 163 L 51 163 Z M 51 148 " clip-rule="nonzero"/></clipPath><clipPath id="36c1ace951"><path d="M -110.75 -49.019531 L -110.75 284.75 C -110.75 321.203125 -81.203125 350.75 -44.75 350.75 L 289.019531 350.75 C 325.46875 350.75 355.019531 321.203125 355.019531 284.75 L 355.019531 -49.019531 C 355.019531 -85.46875 325.46875 -115.019531 289.019531 -115.019531 L -44.75 -115.019531 C -81.203125 -115.019531 -110.75 -85.46875 -110.75 -49.019531 Z M -110.75 -49.019531 " clip-rule="nonzero"/></clipPath><clipPath id="529d094962"><path d="M 21 90 L 95 90 L 95 105 L 21 105 Z M 21 90 " clip-rule="nonzero"/></clipPath><clipPath id="d89a658b2c"><path d="M -110.75 -49.019531 L -110.75 284.75 C -110.75 321.203125 -81.203125 350.75 -44.75 350.75 L 289.019531 350.75 C 325.46875 350.75 355.019531 321.203125 355.019531 284.75 L 355.019531 -49.019531 C 355.019531 -85.46875 325.46875 -115.019531 289.019531 -115.019531 L -44.75 -115.019531 C -81.203125 -115.019531 -110.75 -85.46875 -110.75 -49.019531 Z M -110.75 -49.019531 " clip-rule="nonzero"/></clipPath><clipPath id="7b53d729f5"><path d="M 152 90 L 226 90 L 226 105 L 152 105 Z M 152 90 " clip-rule="nonzero"/></clipPath><clipPath id="238a1c414b"><path d="M -110.75 -49.019531 L -110.75 284.75 C -110.75 321.203125 -81.203125 350.75 -44.75 350.75 L 289.019531 350.75 C 325.46875 350.75 355.019531 321.203125 355.019531 284.75 L 355.019531 -49.019531 C 355.019531 -85.46875 325.46875 -115.019531 289.019531 -115.019531 L -44.75 -115.019531 C -81.203125 -115.019531 -110.75 -85.46875 -110.75 -49.019531 Z M -110.75 -49.019531 " clip-rule="nonzero"/></clipPath></defs><rect x="-24" width="288" fill="#ffffff" y="-23.999999" height="287.999994" fill-opacity="1"/><rect x="-24" width="288" fill="#ffffff" y="-23.999999" height="287.999994" fill-opacity="1"/><g clip-path="url(#9ad47e24f8)"><path fill="#fefefd" d="M 197.804688 352.183594 C 94.953125 352.183594 -7.171875 352.183594 -109.296875 352.183594 C -109.296875 196.933594 -109.296875 41.683594 -109.296875 -113.566406 C 45.953125 -113.566406 201.203125 -113.566406 356.453125 -113.566406 C 356.453125 41.683594 356.453125 196.933594 356.453125 352.183594 C 303.8125 352.183594 251.171875 352.183594 197.804688 352.183594 M 127.097656 293.800781 C 131.929688 293.457031 136.769531 293.222656 141.589844 292.75 C 259.914062 281.121094 332.550781 153.554688 282.046875 46.113281 C 242.699219 -37.59375 147.039062 -76.421875 61.140625 -43.554688 C -33.019531 -7.527344 -78.226562 101.910156 -34.613281 192.367188 C -2.632812 258.695312 52.011719 291.992188 127.097656 293.800781 Z M 127.097656 293.800781 " fill-opacity="1" fill-rule="nonzero"/><path fill="#fdb804" d="M 126.394531 293.8125 C 52.011719 291.992188 -2.632812 258.695312 -34.613281 192.367188 C -78.226562 101.910156 -33.019531 -7.527344 61.140625 -43.554688 C 147.039062 -76.421875 242.699219 -37.59375 282.046875 46.113281 C 332.550781 153.554688 259.914062 281.121094 141.589844 292.75 C 136.769531 293.222656 131.929688 293.457031 126.394531 293.8125 M 135.949219 148.367188 C 110.753906 148.375 85.558594 148.4375 60.363281 148.34375 C 55.039062 148.324219 50.984375 149.730469 51.042969 155.765625 C 51.09375 161.3125 54.875 162.976562 59.921875 162.972656 C 102.316406 162.933594 144.710938 162.941406 187.109375 162.972656 C 192.121094 162.976562 195.984375 161.261719 196.09375 155.785156 C 196.21875 149.796875 192.199219 148.300781 186.824219 148.34375 C 170.351562 148.480469 153.878906 148.375 135.949219 148.367188 M 74.753906 104.800781 C 78.386719 104.792969 82.019531 104.808594 85.652344 104.78125 C 90.605469 104.738281 94.402344 103.035156 94.359375 97.382812 C 94.316406 91.730469 90.578125 90.160156 85.550781 90.171875 C 67.628906 90.222656 49.707031 90.210938 31.789062 90.160156 C 26.722656 90.144531 22.132812 91.175781 21.949219 97.214844 C 21.753906 103.785156 26.527344 104.835938 31.90625 104.808594 C 45.707031 104.746094 59.511719 104.796875 74.753906 104.800781 M 194.164062 104.796875 C 201.429688 104.792969 208.695312 104.746094 215.957031 104.800781 C 221.257812 104.839844 225.359375 103.042969 225.207031 97.140625 C 225.0625 91.601562 220.9375 90.164062 216.035156 90.171875 C 197.875 90.203125 179.710938 90.242188 161.550781 90.140625 C 156.347656 90.109375 152.933594 92.132812 152.796875 97.507812 C 152.660156 103.15625 156.433594 104.839844 161.472656 104.8125 C 171.886719 104.761719 182.296875 104.796875 194.164062 104.796875 Z M 194.164062 104.796875 " fill-opacity="1" fill-rule="nonzero"/></g><g clip-path="url(#3282e60d6f)"><g clip-path="url(#36c1ace951)"><path fill="#514b3d" d="M 136.675781 148.367188 C 153.878906 148.375 170.351562 148.480469 186.824219 148.34375 C 192.199219 148.300781 196.21875 149.796875 196.09375 155.785156 C 195.984375 161.261719 192.121094 162.976562 187.109375 162.972656 C 144.710938 162.941406 102.316406 162.933594 59.921875 162.972656 C 54.875 162.976562 51.09375 161.3125 51.042969 155.765625 C 50.984375 149.730469 55.039062 148.324219 60.363281 148.34375 C 85.558594 148.4375 110.753906 148.375 136.675781 148.367188 Z M 136.675781 148.367188 " fill-opacity="1" fill-rule="nonzero"/></g></g><g clip-path="url(#529d094962)"><g clip-path="url(#d89a658b2c)"><path fill="#524b3d" d="M 74.035156 104.800781 C 59.511719 104.796875 45.707031 104.746094 31.90625 104.808594 C 26.527344 104.835938 21.753906 103.785156 21.949219 97.214844 C 22.132812 91.175781 26.722656 90.144531 31.789062 90.160156 C 49.707031 90.210938 67.628906 90.222656 85.550781 90.171875 C 90.578125 90.160156 94.316406 91.730469 94.359375 97.382812 C 94.402344 103.035156 90.605469 104.738281 85.652344 104.78125 C 82.019531 104.808594 78.386719 104.792969 74.035156 104.800781 Z M 74.035156 104.800781 " fill-opacity="1" fill-rule="nonzero"/></g></g><g clip-path="url(#7b53d729f5)"><g clip-path="url(#238a1c414b)"><path fill="#524b3d" d="M 193.4375 104.792969 C 182.296875 104.796875 171.886719 104.761719 161.472656 104.8125 C 156.433594 104.839844 152.660156 103.15625 152.796875 97.507812 C 152.933594 92.132812 156.347656 90.109375 161.550781 90.140625 C 179.710938 90.242188 197.875 90.203125 216.035156 90.171875 C 220.9375 90.164062 225.0625 91.601562 225.207031 97.140625 C 225.359375 103.042969 221.257812 104.839844 215.957031 104.800781 C 208.695312 104.746094 201.429688 104.792969 193.4375 104.792969 Z M 193.4375 104.792969 " fill-opacity="1" fill-rule="nonzero"/></g></g></svg>