<svg version="1.1" id="Layer_1" xmlns="http://www.w3.org/2000/svg" xmlns:xlink="http://www.w3.org/1999/xlink" x="0px" y="0px"
	 width="100%" viewBox="0 0 320 320" enable-background="new 0 0 320 320" xml:space="preserve">
<path fill="#FEFEFD" opacity="1.000000" stroke="none" 
	d="
M212.000000,321.000000 
	C141.333359,321.000000 71.166718,321.000000 1.000057,321.000000 
	C1.000038,214.333389 1.000038,107.666794 1.000019,1.000142 
	C107.666565,1.000095 214.333130,1.000095 320.999756,1.000047 
	C320.999847,107.666527 320.999847,214.333054 320.999939,320.999786 
	C284.833344,321.000000 248.666672,321.000000 212.000000,321.000000 
M163.419342,280.888306 
	C166.738449,280.650879 170.065109,280.490112 173.375580,280.164825 
	C254.671188,272.176666 304.579834,184.530045 269.879120,110.711235 
	C242.843765,53.198948 177.121323,26.521585 118.101921,49.103424 
	C53.409649,73.855804 22.347363,149.046417 52.314541,211.197235 
	C74.287018,256.767365 111.829330,279.644379 163.419342,280.888306 
z"/>
<path fill="#FDB804" opacity="1.000000" stroke="none" 
	d="
M162.935760,280.896912 
	C111.829330,279.644379 74.287018,256.767365 52.314541,211.197235 
	C22.347363,149.046417 53.409649,73.855804 118.101921,49.103424 
	C177.121323,26.521585 242.843765,53.198948 269.879120,110.711235 
	C304.579834,184.530045 254.671188,272.176666 173.375580,280.164825 
	C170.065109,280.490112 166.738449,280.650879 162.935760,280.896912 
M169.500000,180.965363 
	C152.189346,180.970718 134.878540,181.014221 117.568138,180.950623 
	C113.911453,180.937195 111.123596,181.902679 111.163651,186.049393 
	C111.200455,189.860153 113.796486,191.002945 117.264656,190.999771 
	C146.393188,190.973099 175.521774,190.978317 204.650314,190.999954 
	C208.094666,191.002518 210.748215,189.826096 210.824814,186.063110 
	C210.908585,181.947327 208.148239,180.919586 204.455093,180.950317 
	C193.137466,181.044495 181.818466,180.971863 169.500000,180.965363 
M127.455498,151.031616 
	C129.951416,151.028229 132.447464,151.038803 134.943237,151.018051 
	C138.347031,150.989746 140.954254,149.818512 140.925232,145.936142 
	C140.896210,142.052094 138.328964,140.973251 134.874313,140.982986 
	C122.561218,141.017685 110.247879,141.007278 97.934753,140.972504 
	C94.455116,140.962677 91.301208,141.670853 91.176292,145.820892 
	C91.040466,150.333694 94.321350,151.055847 98.015350,151.039215 
	C107.499657,150.996506 116.984314,151.029099 127.455498,151.031616 
M209.499008,151.028885 
	C214.490189,151.026657 219.481598,150.994095 224.472473,151.032318 
	C228.113251,151.060181 230.931198,149.823746 230.826614,145.769485 
	C230.728424,141.962906 227.892883,140.977356 224.524490,140.983002 
	C212.046631,141.003906 199.568466,141.029236 187.090942,140.959229 
	C183.515610,140.939163 181.168854,142.328674 181.077255,146.022232 
	C180.981003,149.903137 183.574478,151.059662 187.037476,151.041962 
	C194.191299,151.005371 201.345413,151.028931 209.499008,151.028885 
z"/>
<path fill="#514B3D" opacity="1.000000" stroke="none" 
	d="
M170.000000,180.964722 
	C181.818466,180.971863 193.137466,181.044495 204.455093,180.950317 
	C208.148239,180.919586 210.908585,181.947327 210.824814,186.063110 
	C210.748215,189.826096 208.094666,191.002518 204.650314,190.999954 
	C175.521774,190.978317 146.393188,190.973099 117.264656,190.999771 
	C113.796486,191.002945 111.200455,189.860153 111.163651,186.049393 
	C111.123596,181.902679 113.911453,180.937195 117.568138,180.950623 
	C134.878540,181.014221 152.189346,180.970718 170.000000,180.964722 
z"/>
<path fill="#524B3D" opacity="1.000000" stroke="none" 
	d="
M126.962158,151.031616 
	C116.984314,151.029099 107.499657,150.996506 98.015350,151.039215 
	C94.321350,151.055847 91.040466,150.333694 91.176292,145.820892 
	C91.301208,141.670853 94.455116,140.962677 97.934753,140.972504 
	C110.247879,141.007278 122.561218,141.017685 134.874313,140.982986 
	C138.328964,140.973251 140.896210,142.052094 140.925232,145.936142 
	C140.954254,149.818512 138.347031,150.989746 134.943237,151.018051 
	C132.447464,151.038803 129.951416,151.028229 126.962158,151.031616 
z"/>
<path fill="#524B3D" opacity="1.000000" stroke="none" 
	d="
M208.999207,151.028320 
	C201.345413,151.028931 194.191299,151.005371 187.037476,151.041962 
	C183.574478,151.059662 180.981003,149.903137 181.077255,146.022232 
	C181.168854,142.328674 183.515610,140.939163 187.090942,140.959229 
	C199.568466,141.029236 212.046631,141.003906 224.524490,140.983002 
	C227.892883,140.977356 230.728424,141.962906 230.826614,145.769485 
	C230.931198,149.823746 228.113251,151.060181 224.472473,151.032318 
	C219.481598,150.994095 214.490189,151.026657 208.999207,151.028320 
z"/>
</svg>