<svg version="1.1" id="Layer_1" xmlns="http://www.w3.org/2000/svg" xmlns:xlink="http://www.w3.org/1999/xlink" x="0px" y="0px"
	 width="100%" viewBox="0 0 320 320" enable-background="new 0 0 320 320" xml:space="preserve">
<path fill="#FEFEFD" opacity="1.000000" stroke="none" 
	d="
M212.000000,321.000000 
	C142.666687,321.000000 73.833321,320.967499 5.000255,321.096497 
	C1.575826,321.102905 0.900670,320.424194 0.904526,316.999969 
	C1.021643,213.000153 1.021630,109.000130 0.904563,5.000296 
	C0.900709,1.576657 1.575476,0.900655 4.999917,0.904512 
	C108.999748,1.021646 212.999756,1.021624 316.999573,0.904580 
	C320.422974,0.900727 321.099365,1.575125 321.095490,4.999802 
	C320.978363,108.999634 320.978363,212.999649 321.095398,316.999451 
	C321.099243,320.422577 320.427490,321.115082 316.999969,321.099152 
	C282.167267,320.936829 247.333481,321.000000 212.000000,321.000000 
z"/>
<path fill="#FDB804" opacity="1.000000" stroke="none" 
	d="
M125.533188,275.548706 
	C72.566208,258.251709 39.316288,210.794571 41.155529,155.513977 
	C43.077881,97.735435 90.152000,47.486359 147.577911,41.913845 
	C199.952942,36.831459 246.302505,62.656700 269.431458,109.808670 
	C298.958405,170.003998 269.726318,246.022812 207.552032,271.415497 
	C180.723267,282.372650 153.617935,283.719666 125.533188,275.548706 
z"/>
<path fill="#554C3A" opacity="1.000000" stroke="none" 
	d="
M111.087036,199.127655 
	C111.196068,203.167343 110.127739,206.034866 105.915268,205.865189 
	C101.828758,205.700607 100.801216,202.880005 101.014236,199.237839 
	C101.928398,183.607285 109.695396,171.868225 122.074196,163.031326 
	C147.473282,144.899551 183.745071,147.169373 206.422729,168.393936 
	C215.224289,176.631531 220.398270,186.912201 220.970169,199.197510 
	C221.132538,202.685501 220.437027,205.766449 216.175125,205.891983 
	C212.037369,206.013870 211.138275,203.265884 210.861450,199.625839 
	C209.749069,184.998901 201.607590,174.760300 189.180176,168.196808 
	C170.361938,158.257965 151.077103,158.319946 132.319519,168.490479 
	C120.438950,174.932281 112.734474,184.814514 111.087036,199.127655 
z"/>
<path fill="#554C39" opacity="1.000000" stroke="none" 
	d="
M119.642181,135.271393 
	C114.184204,136.493622 109.204910,137.730972 104.536995,140.042465 
	C101.625549,141.484177 98.575180,141.879028 96.825455,138.356369 
	C94.996780,134.674744 96.994049,132.483994 100.253159,130.875580 
	C105.765846,128.154999 111.707123,126.802689 119.055489,125.187836 
	C112.668793,120.615768 107.241142,116.714180 101.796242,112.836823 
	C96.115395,108.791458 94.658127,105.985168 97.182098,103.099976 
	C101.124268,98.593643 104.391907,102.293556 107.505867,104.472282 
	C117.578468,111.519775 127.521027,118.752975 137.579544,125.820900 
	C140.163071,127.636284 141.837540,129.772659 140.605942,132.919342 
	C139.310547,136.229050 136.472000,136.290115 133.471252,135.597122 
	C129.037674,134.573273 124.553589,134.878159 119.642181,135.271393 
z"/>
<path fill="#554C39" opacity="1.000000" stroke="none" 
	d="
M193.422485,119.430832 
	C201.311310,113.841690 208.919083,108.478027 216.484406,103.055130 
	C219.314621,101.026413 222.316071,99.730141 224.771240,103.091331 
	C227.344086,106.613609 225.295074,109.223511 222.229492,111.387192 
	C216.142639,115.683289 210.125900,120.078743 203.384811,124.933968 
	C208.348846,126.376762 212.550690,127.498962 216.681915,128.838852 
	C218.882050,129.552414 221.058365,130.468643 223.068970,131.605515 
	C225.757843,133.125900 226.610565,135.517120 225.211990,138.394470 
	C223.855423,141.185349 221.365768,141.551056 218.838226,140.592148 
	C214.646988,139.002045 210.599442,137.012924 206.190704,136.049423 
	C200.288834,134.759613 194.364716,134.380432 188.393921,135.708069 
	C185.638779,136.320679 182.877167,136.236649 181.530090,133.241287 
	C180.134018,130.136963 181.615067,127.836159 184.207306,126.028458 
	C187.207443,123.936317 190.154480,121.768005 193.422485,119.430832 
z"/>
</svg>