<svg version="1.1" id="Layer_1" xmlns="http://www.w3.org/2000/svg" xmlns:xlink="http://www.w3.org/1999/xlink" x="0px" y="0px"
	 width="100%" viewBox="0 0 320 320" enable-background="new 0 0 320 320" xml:space="preserve">
<path fill="#FEFEFD" opacity="1.000000" stroke="none" 
	d="
M212.000000,321.000000 
	C141.333359,321.000000 71.166718,321.000000 1.000057,321.000000 
	C1.000038,214.333389 1.000038,107.666794 1.000019,1.000142 
	C107.666565,1.000095 214.333130,1.000095 320.999756,1.000047 
	C320.999847,107.666527 320.999847,214.333054 320.999939,320.999786 
	C284.833344,321.000000 248.666672,321.000000 212.000000,321.000000 
M112.797218,270.792480 
	C144.474106,284.022156 176.053238,284.161896 208.019455,271.258240 
	C269.833923,246.305847 299.122223,168.793182 268.988464,108.911064 
	C244.308853,59.867413 194.945007,34.485889 140.644119,42.919968 
	C85.913673,51.420761 41.875732,101.075058 41.286007,156.535141 
	C40.726620,209.142410 65.008408,247.098907 112.797218,270.792480 
z"/>
<path fill="#FDB804" opacity="1.000000" stroke="none" 
	d="
M112.449921,270.639343 
	C65.008408,247.098907 40.726620,209.142410 41.286007,156.535141 
	C41.875732,101.075058 85.913673,51.420761 140.644119,42.919968 
	C194.945007,34.485889 244.308853,59.867413 268.988464,108.911064 
	C299.122223,168.793182 269.833923,246.305847 208.019455,271.258240 
	C176.053238,284.161896 144.474106,284.022156 112.449921,270.639343 
M104.183311,210.456680 
	C104.473602,210.630463 104.763901,210.804260 105.001778,211.000336 
	C105.001778,211.000336 105.019806,210.946304 105.207619,211.443588 
	C105.512871,211.602219 105.818123,211.760849 106.033272,211.962555 
	C106.033272,211.962555 106.076225,211.872391 106.236282,212.392960 
	C106.548988,212.549850 106.861694,212.706757 107.051659,212.931839 
	C107.051659,212.931839 107.132210,212.816818 107.266418,213.352814 
	C107.586700,213.494797 107.906982,213.636795 108.045654,213.835938 
	C108.045654,213.835938 108.200775,213.725540 108.336311,214.346924 
	C108.899429,214.561554 109.462555,214.776199 109.999115,215.002533 
	C109.999115,215.002533 110.007164,214.974747 110.087158,215.691452 
	C110.866417,216.054031 111.645668,216.416626 112.750580,216.835175 
	C112.750580,216.835175 113.006622,217.044037 113.228561,217.500244 
	C113.528305,217.636169 113.828041,217.772095 114.016449,217.912201 
	C114.016449,217.912201 114.111580,217.854202 114.122337,218.585419 
	C115.777977,219.363892 117.433609,220.142365 119.021690,220.981918 
	C119.021690,220.981918 119.040131,220.892746 119.331306,221.451889 
	C119.917206,221.608093 120.503113,221.764297 120.988991,221.955872 
	C120.988991,221.955872 121.073349,221.891312 121.114677,222.616974 
	C126.040634,224.741455 130.865265,227.153183 135.912552,228.933731 
	C148.402161,233.339706 161.452530,232.286331 174.286774,231.722610 
	C179.263260,231.504044 184.120071,228.560394 189.267929,226.716202 
	C189.267929,226.716202 189.532547,226.794083 190.388535,226.925858 
	C193.899429,225.247253 197.410324,223.568649 201.013702,221.947784 
	C201.013702,221.947784 200.910034,221.915802 201.544144,221.955887 
	C202.012756,221.596771 202.481369,221.237656 202.974976,220.976608 
	C202.974976,220.976608 202.901886,220.906616 203.655090,220.987442 
	C205.076385,219.951950 206.497681,218.916458 208.008194,217.955505 
	C208.008194,217.955505 207.900513,217.911789 208.644073,217.986252 
	C209.760223,216.982574 210.876373,215.978897 212.001297,215.003296 
	C212.001297,215.003296 211.973129,214.994629 212.446320,214.850800 
	C212.746689,214.674850 212.944122,214.419357 213.016647,214.006927 
	C213.016647,214.006927 213.081329,214.054810 213.790222,214.037476 
	C214.497040,213.317352 215.203857,212.597229 215.985291,211.940979 
	C215.985291,211.940979 215.887451,211.932175 216.400528,211.794464 
	C216.591492,211.508347 216.782471,211.222229 216.994781,210.997452 
	C216.994781,210.997452 216.935394,210.971191 217.435501,210.815323 
	C217.619156,210.529739 217.802811,210.244171 218.001801,210.001892 
	C218.001801,210.001892 217.958603,209.986282 218.450546,209.820282 
	C218.630432,209.535141 218.810318,209.249985 219.002472,209.002502 
	C219.002472,209.002502 218.964798,208.990219 219.454453,208.819443 
	C219.632492,208.533432 219.810532,208.247421 220.002441,208.002167 
	C220.002441,208.002167 219.961517,207.988846 220.450989,207.816986 
	C220.629745,207.531021 220.808502,207.245056 221.002060,207.001907 
	C221.002060,207.001907 220.959030,206.987656 221.450317,206.807678 
	C221.622665,206.515213 221.795013,206.222748 221.994202,205.993820 
	C221.994202,205.993820 221.930023,205.968613 222.431152,205.799652 
	C222.605042,205.504700 222.778931,205.209747 222.966537,204.998871 
	C222.966537,204.998871 222.909103,204.935944 223.635071,204.931519 
	C226.742157,203.645142 228.411728,201.461975 228.000626,198.000504 
	C228.000626,198.000504 227.966019,197.982452 228.699234,197.940155 
	C229.759323,195.591736 230.819427,193.243317 231.937439,191.019135 
	C231.937439,191.019135 231.852341,190.911407 232.539597,190.694458 
	C234.255341,185.821884 236.104431,180.987885 237.537567,176.033569 
	C237.743607,175.321320 235.945038,174.029175 234.992111,172.996552 
	C234.992111,172.996552 234.999741,172.914368 234.913254,172.165115 
	C231.283066,168.682587 227.710602,169.139877 226.228806,173.274536 
	C226.228806,173.274536 226.289474,173.197693 225.589066,173.447800 
	C223.603333,178.522461 221.590866,183.586914 219.648666,188.678162 
	C219.088364,190.146988 218.730301,191.692947 218.000290,193.124313 
	C218.000290,193.124313 218.276855,193.221268 217.575485,193.304550 
	C216.490677,194.956970 215.405869,196.609375 214.199417,198.212708 
	C214.199417,198.212708 214.273972,198.320679 213.561798,198.159943 
	C212.448700,199.528351 211.335602,200.896744 210.019012,202.210983 
	C210.019012,202.210983 210.229126,202.224625 209.678299,202.286957 
	C209.524475,202.600433 209.370651,202.913910 208.987549,203.098633 
	C208.987549,203.098633 209.219681,203.213135 208.669708,203.285767 
	C208.511230,203.599045 208.352753,203.912323 208.255798,204.171021 
	C208.255798,204.171021 208.236282,204.250916 207.540054,204.144577 
	C207.042740,204.786865 206.545441,205.429169 205.994507,206.011627 
	C205.994507,206.011627 206.063095,206.052719 205.328949,205.997467 
	C204.592438,206.717117 203.855927,207.436768 203.005981,208.130936 
	C203.005981,208.130936 203.121674,208.122009 202.473938,208.068405 
	C202.042114,208.466370 201.610275,208.864334 201.037155,209.178604 
	C201.037155,209.178604 201.199158,209.205521 200.658722,209.259613 
	C200.460114,209.545364 200.261505,209.831116 200.023865,210.012970 
	C200.023865,210.012970 200.100739,210.093002 199.374222,210.016632 
	C198.301544,210.759506 197.228882,211.502380 195.977859,212.164749 
	C195.977859,212.164749 196.167435,212.212570 195.369843,212.068268 
	C187.788574,214.142090 180.225067,216.283783 172.622101,218.274750 
	C159.253052,221.775681 146.544479,218.851181 134.012512,214.190033 
	C130.019638,212.704941 125.941368,211.449493 121.976891,210.012314 
	C121.976891,210.012314 121.940559,210.112991 121.759773,209.599747 
	C121.438301,209.467407 121.116821,209.335083 120.947433,209.161713 
	C120.947433,209.161713 120.826370,209.262497 120.644997,208.641937 
	C120.059151,208.462708 119.473297,208.283478 119.009026,208.080338 
	C119.009026,208.080338 118.899559,208.138565 118.887497,207.411743 
	C117.906288,206.955841 116.925079,206.499939 116.005272,206.009933 
	C116.005272,206.009933 115.957649,206.062210 116.004036,205.315521 
	C114.578316,204.313858 113.152588,203.312195 111.860703,202.102692 
	C111.860703,202.102692 111.686798,202.278381 111.840355,201.539276 
	C110.806480,200.795074 109.772606,200.050888 108.751411,199.263657 
	C108.751411,199.263657 108.771011,199.223297 108.708885,198.673447 
	C108.392799,198.528732 108.076721,198.384018 107.715004,198.203491 
	C107.715004,198.203491 107.694481,198.257736 107.828934,197.555115 
	C107.166000,197.079346 106.503067,196.603561 105.890266,195.989410 
	C105.890266,195.989410 105.867851,196.134094 105.961494,195.379654 
	C105.218590,194.673645 104.475677,193.967651 103.839188,193.238922 
	C103.839188,193.238922 103.737587,193.199966 103.898643,192.433197 
	C101.721443,186.331802 99.569244,180.221130 97.315659,174.148087 
	C97.150269,173.702362 96.252510,173.528412 95.747070,173.068604 
	C95.747070,173.068604 95.755615,173.236115 95.707497,172.685638 
	C95.403885,172.510757 95.100273,172.335876 94.954521,172.171234 
	C94.954521,172.171234 94.801926,172.212952 94.816338,171.425720 
	C92.604469,171.383804 90.392601,171.341888 88.258873,171.245895 
	C88.258873,171.245895 88.276451,171.339279 87.551476,171.190399 
	C83.258537,175.189682 84.654747,185.845474 90.034454,190.994125 
	C90.034454,190.994125 90.106743,190.895248 90.045845,191.529083 
	C90.390205,192.010422 90.734558,192.491760 91.005569,192.992630 
	C91.005569,192.992630 91.056068,192.935959 90.985039,193.709885 
	C92.007965,195.129852 93.030899,196.549835 94.002892,198.001266 
	C94.002892,198.001266 94.034264,197.950348 93.981293,198.721069 
	C94.010902,202.175308 95.658279,204.293045 99.047455,204.993484 
	C99.047455,204.993484 99.055130,204.903061 99.206703,205.413147 
	C99.499283,205.594727 99.791855,205.776321 100.012390,205.987427 
	C100.012390,205.987427 100.043221,205.915924 100.194305,206.419815 
	C100.479477,206.607315 100.764648,206.794830 100.999199,207.000092 
	C100.999199,207.000092 101.018120,206.949890 101.190689,207.443130 
	C101.479324,207.621216 101.767960,207.799301 102.001183,207.998428 
	C102.001183,207.998428 102.022720,207.943207 102.186859,208.439117 
	C102.472969,208.621048 102.759087,208.802963 102.998207,209.000870 
	C102.998207,209.000870 103.015678,208.954391 103.180313,209.447571 
	C103.465134,209.628677 103.749947,209.809784 103.997284,210.002533 
	C103.997284,210.002533 104.009048,209.965118 104.183311,210.456680 
M196.662415,126.834045 
	C206.719208,124.559357 214.116699,129.643021 215.799164,140.304092 
	C216.342148,143.744904 217.424286,146.124786 221.283783,145.930634 
	C225.289902,145.729095 225.994202,142.953110 225.962189,139.621826 
	C225.839584,126.866150 214.424728,116.053650 201.001968,116.019684 
	C187.737320,115.986115 176.122253,126.983627 175.984726,139.634048 
	C175.948059,143.007980 176.718582,145.748474 180.670181,145.938019 
	C184.483185,146.120926 185.790680,143.805237 186.093002,140.275452 
	C186.636230,133.932510 189.806839,129.356079 196.662415,126.834045 
M135.905151,139.755295 
	C135.891312,143.401733 137.119949,146.090347 141.303024,145.928574 
	C145.679321,145.759323 146.109299,142.634903 145.987457,139.188492 
	C145.531906,126.301628 134.071426,115.818062 120.633110,116.019302 
	C107.381279,116.217751 95.994743,127.401733 96.039619,140.073441 
	C96.051254,143.357559 97.092812,145.701553 100.670990,145.935242 
	C104.167236,146.163589 105.499786,144.152695 106.177788,140.856857 
	C106.830231,137.685196 107.775589,134.272766 109.626457,131.714294 
	C112.992752,127.060997 118.045509,125.220291 123.770973,126.436966 
	C130.509354,127.868881 134.368881,132.308990 135.905151,139.755295 
z"/>
<path fill="#544C3A" opacity="1.000000" stroke="none" 
	d="
M189.532547,226.794083 
	C189.532547,226.794083 189.267929,226.716202 188.733704,226.786377 
	C179.348297,228.203705 170.533249,230.295456 161.637604,230.727554 
	C147.466751,231.415894 134.045944,227.378281 121.073349,221.891312 
	C121.073349,221.891312 120.988991,221.955872 120.871658,221.682831 
	C120.182922,221.237427 119.611526,221.065094 119.040131,220.892761 
	C119.040131,220.892746 119.021690,220.981918 118.885834,220.667679 
	C117.203842,219.520355 115.657715,218.687271 114.111588,217.854187 
	C114.111580,217.854202 114.016449,217.912201 113.968063,217.676086 
	C113.615334,217.307983 113.310982,217.176010 113.006622,217.044037 
	C113.006622,217.044037 112.750580,216.835175 112.413452,216.548309 
	C111.386597,215.832550 110.696877,215.403656 110.007164,214.974747 
	C110.007164,214.974747 109.999115,215.002533 109.883965,214.728607 
	C109.246132,214.211624 108.723450,213.968582 108.200775,213.725540 
	C108.200775,213.725540 108.045654,213.835938 108.050934,213.557388 
	C107.748215,213.124832 107.440216,212.970825 107.132217,212.816803 
	C107.132210,212.816818 107.051659,212.931839 107.023209,212.646362 
	C106.688583,212.198059 106.382401,212.035233 106.076225,211.872391 
	C106.076225,211.872391 106.033272,211.962555 105.982712,211.694305 
	C105.628029,211.266159 105.323914,211.106232 105.019806,210.946304 
	C105.019806,210.946304 105.001778,211.000336 104.940140,210.743652 
	C104.588676,210.313019 104.298866,210.139069 104.009048,209.965118 
	C104.009048,209.965118 103.997284,210.002533 103.937149,209.747864 
	C103.589897,209.313583 103.302788,209.133987 103.015678,208.954391 
	C103.015678,208.954391 102.998207,209.000870 102.942993,208.742615 
	C102.599419,208.303970 102.311073,208.123596 102.022720,207.943207 
	C102.022720,207.943207 102.001183,207.998428 101.945763,207.739273 
	C101.599602,207.303375 101.308861,207.126633 101.018120,206.949890 
	C101.018120,206.949890 100.999199,207.000092 100.948677,206.738739 
	C100.613174,206.290222 100.328201,206.103073 100.043221,205.915924 
	C100.043221,205.915924 100.012390,205.987427 99.970711,205.718475 
	C99.637733,205.267349 99.346436,205.085205 99.055130,204.903061 
	C99.055130,204.903061 99.047455,204.993484 99.010880,204.627533 
	C97.327621,202.157852 95.680946,200.054092 94.034264,197.950348 
	C94.034264,197.950348 94.002892,198.001266 93.984100,197.653992 
	C92.995560,195.849808 92.025810,194.392883 91.056068,192.935959 
	C91.056068,192.935959 91.005569,192.992630 91.041183,192.677216 
	C90.753441,191.872940 90.430092,191.384094 90.106743,190.895248 
	C90.106743,190.895248 90.034454,190.994125 90.070465,190.575333 
	C89.467438,188.274353 88.763672,186.411240 88.202431,184.506134 
	C86.910156,180.119568 84.749405,175.706390 88.276451,171.339279 
	C88.276451,171.339279 88.258873,171.245895 88.602669,171.284485 
	C90.898285,171.619705 92.850105,171.916321 94.801926,172.212952 
	C94.801926,172.212952 94.954521,172.171234 94.942764,172.417984 
	C95.205879,172.855194 95.480751,173.045654 95.755615,173.236115 
	C95.755615,173.236115 95.747070,173.068604 95.741516,173.546997 
	C97.019722,180.994247 98.736015,187.782593 103.737587,193.199966 
	C103.737587,193.199966 103.839188,193.238922 103.841888,193.553894 
	C104.519012,194.623932 105.193436,195.379013 105.867859,196.134094 
	C105.867851,196.134094 105.890266,195.989410 105.921616,196.357147 
	C106.533470,197.235840 107.113976,197.746780 107.694481,198.257736 
	C107.694481,198.257736 107.715004,198.203491 107.801910,198.474304 
	C108.182884,198.904510 108.476944,199.063904 108.771011,199.223297 
	C108.771011,199.223297 108.751411,199.263657 108.799042,199.595779 
	C109.793373,200.711395 110.740082,201.494888 111.686798,202.278381 
	C111.686798,202.278381 111.860703,202.102692 111.874268,202.517120 
	C113.244438,203.975113 114.601044,205.018661 115.957649,206.062210 
	C115.957649,206.062210 116.005272,206.009933 116.103271,206.317673 
	C117.100708,207.129791 118.000130,207.634186 118.899559,208.138565 
	C118.899559,208.138565 119.009026,208.080338 119.088608,208.362183 
	C119.720917,208.850189 120.273643,209.056335 120.826370,209.262497 
	C120.826370,209.262497 120.947433,209.161713 120.964172,209.432953 
	C121.300797,209.840454 121.620674,209.976715 121.940559,210.112991 
	C121.940559,210.112991 121.976891,210.012314 122.113129,210.346008 
	C137.183563,219.600494 153.413910,222.438828 170.493820,220.443542 
	C179.519562,219.389130 188.411728,217.451157 196.167435,212.212570 
	C196.167435,212.212570 195.977859,212.164749 196.401871,212.188416 
	C197.917496,211.505722 199.009109,210.799362 200.100739,210.092987 
	C200.100739,210.093002 200.023865,210.012970 200.307434,210.020050 
	C200.793732,209.753250 200.996445,209.479385 201.199158,209.205521 
	C201.199158,209.205521 201.037155,209.178604 201.410889,209.210907 
	C202.230316,208.869461 202.675995,208.495743 203.121674,208.122009 
	C203.121674,208.122009 203.005981,208.130936 203.376129,208.101868 
	C204.518539,207.399445 205.290817,206.726074 206.063095,206.052719 
	C206.063095,206.052719 205.994507,206.011627 206.326080,205.999146 
	C207.183853,205.408081 207.710068,204.829498 208.236282,204.250916 
	C208.236282,204.250916 208.255798,204.171021 208.479553,204.130020 
	C208.875443,203.797058 209.047562,203.505096 209.219681,203.213135 
	C209.219681,203.213135 208.987549,203.098633 209.357910,203.102188 
	C209.895218,202.812027 210.062164,202.518326 210.229126,202.224625 
	C210.229126,202.224625 210.019012,202.210983 210.447296,202.188782 
	C212.008362,200.884628 213.141174,199.602646 214.273972,198.320679 
	C214.273972,198.320679 214.199417,198.212708 214.566055,198.136963 
	C216.047424,196.447922 217.162140,194.834595 218.276855,193.221268 
	C218.276855,193.221268 218.000290,193.124313 218.431244,193.000549 
	C221.337967,186.317093 223.813721,179.757401 226.289490,173.197693 
	C226.289474,173.197693 226.228806,173.274536 226.593735,173.161224 
	C229.593781,170.279480 232.288773,171.115845 234.999741,172.914368 
	C234.999741,172.914368 234.992111,172.996552 235.079010,173.371765 
	C235.192261,175.510452 235.560349,177.352432 235.176834,179.021759 
	C234.256454,183.028107 232.983200,186.953400 231.852325,190.911407 
	C231.852341,190.911407 231.937439,191.019135 231.643646,191.164093 
	C230.221893,193.533524 229.093964,195.757996 227.966034,197.982452 
	C227.966019,197.982452 228.000626,198.000504 227.708786,198.160126 
	C225.914322,200.525146 224.411713,202.730545 222.909103,204.935944 
	C222.909103,204.935944 222.966537,204.998871 222.706970,205.037811 
	C222.274933,205.374039 222.102478,205.671326 221.930023,205.968613 
	C221.930023,205.968613 221.994202,205.993820 221.733887,206.049728 
	C221.302048,206.399643 221.130539,206.693649 220.959030,206.987656 
	C220.959030,206.987656 221.002060,207.001907 220.746796,207.062576 
	C220.314850,207.411774 220.138199,207.700317 219.961517,207.988861 
	C219.961517,207.988846 220.002441,208.002167 219.748474,208.064392 
	C219.317932,208.414474 219.141373,208.702347 218.964813,208.990219 
	C218.964798,208.990219 219.002472,209.002502 218.748383,209.064484 
	C218.315720,209.413071 218.137161,209.699677 217.958603,209.986282 
	C217.958603,209.986282 218.001801,210.001892 217.745880,210.060059 
	C217.305099,210.402542 217.120239,210.686874 216.935394,210.971191 
	C216.935394,210.971191 216.994781,210.997452 216.729248,211.040314 
	C216.271622,211.366165 216.079544,211.649170 215.887451,211.932175 
	C215.887451,211.932175 215.985291,211.940979 215.643951,211.972260 
	C214.562180,212.687317 213.821762,213.371063 213.081329,214.054810 
	C213.081329,214.054810 213.016647,214.006927 212.779785,214.098999 
	C212.352982,214.458939 212.163055,214.726776 211.973129,214.994629 
	C211.973129,214.994629 212.001297,215.003296 211.675354,215.036652 
	C210.199768,216.017258 209.050140,216.964523 207.900513,217.911789 
	C207.900513,217.911789 208.008194,217.955505 207.629410,217.957916 
	C205.801041,218.942413 204.351471,219.924515 202.901886,220.906616 
	C202.901886,220.906616 202.974976,220.976608 202.657150,220.934753 
	C201.862900,221.233871 201.386475,221.574844 200.910034,221.915802 
	C200.910034,221.915802 201.013702,221.947784 200.600922,221.952637 
	C196.636276,223.569702 193.084412,225.181900 189.532547,226.794083 
z"/>
<path fill="#564C38" opacity="1.000000" stroke="none" 
	d="
M196.278809,126.930939 
	C189.806839,129.356079 186.636230,133.932510 186.093002,140.275452 
	C185.790680,143.805237 184.483185,146.120926 180.670181,145.938019 
	C176.718582,145.748474 175.948059,143.007980 175.984726,139.634048 
	C176.122253,126.983627 187.737320,115.986115 201.001968,116.019684 
	C214.424728,116.053650 225.839584,126.866150 225.962189,139.621826 
	C225.994202,142.953110 225.289902,145.729095 221.283783,145.930634 
	C217.424286,146.124786 216.342148,143.744904 215.799164,140.304092 
	C214.116699,129.643021 206.719208,124.559357 196.278809,126.930939 
z"/>
<path fill="#564C38" opacity="1.000000" stroke="none" 
	d="
M135.855621,139.356827 
	C134.368881,132.308990 130.509354,127.868881 123.770973,126.436966 
	C118.045509,125.220291 112.992752,127.060997 109.626457,131.714294 
	C107.775589,134.272766 106.830231,137.685196 106.177788,140.856857 
	C105.499786,144.152695 104.167236,146.163589 100.670990,145.935242 
	C97.092812,145.701553 96.051254,143.357559 96.039619,140.073441 
	C95.994743,127.401733 107.381279,116.217751 120.633110,116.019302 
	C134.071426,115.818062 145.531906,126.301628 145.987457,139.188492 
	C146.109299,142.634903 145.679321,145.759323 141.303024,145.928574 
	C137.119949,146.090347 135.891312,143.401733 135.855621,139.356827 
z"/>
<path fill="#E3AF27" opacity="1.000000" stroke="none" 
	d="
M195.768646,212.140411 
	C188.411728,217.451157 179.519562,219.389130 170.493820,220.443542 
	C153.413910,222.438828 137.183563,219.600494 122.075775,210.384338 
	C125.941368,211.449493 130.019638,212.704941 134.012512,214.190033 
	C146.544479,218.851181 159.253052,221.775681 172.622101,218.274750 
	C180.225067,216.283783 187.788574,214.142090 195.768646,212.140411 
z"/>
<path fill="#E3AF27" opacity="1.000000" stroke="none" 
	d="
M121.094009,222.254150 
	C134.045944,227.378281 147.466751,231.415894 161.637604,230.727554 
	C170.533249,230.295456 179.348297,228.203705 188.615448,226.857361 
	C184.120071,228.560394 179.263260,231.504044 174.286774,231.722610 
	C161.452530,232.286331 148.402161,233.339706 135.912552,228.933731 
	C130.865265,227.153183 126.040634,224.741455 121.094009,222.254150 
z"/>
<path fill="#E3AF27" opacity="1.000000" stroke="none" 
	d="
M103.818115,192.816589 
	C98.736015,187.782593 97.019722,180.994247 95.715591,173.626770 
	C96.252510,173.528412 97.150269,173.702362 97.315659,174.148087 
	C99.569244,180.221130 101.721443,186.331802 103.818115,192.816589 
z"/>
<path fill="#E3AF27" opacity="1.000000" stroke="none" 
	d="
M87.913963,171.264832 
	C84.749405,175.706390 86.910156,180.119568 88.202431,184.506134 
	C88.763672,186.411240 89.467438,188.274353 90.122070,190.542358 
	C84.654747,185.845474 83.258537,175.189682 87.913963,171.264832 
z"/>
<path fill="#E3AF27" opacity="1.000000" stroke="none" 
	d="
M225.939270,173.322754 
	C223.813721,179.757401 221.337967,186.317093 218.570862,193.040161 
	C218.730301,191.692947 219.088364,190.146988 219.648666,188.678162 
	C221.590866,183.586914 223.603333,178.522461 225.939270,173.322754 
z"/>
<path fill="#E3AF27" opacity="1.000000" stroke="none" 
	d="
M232.195953,190.802933 
	C232.983200,186.953400 234.256454,183.028107 235.176834,179.021759 
	C235.560349,177.352432 235.192261,175.510452 235.120041,173.376190 
	C235.945038,174.029175 237.743607,175.321320 237.537567,176.033569 
	C236.104431,180.987885 234.255341,185.821884 232.195953,190.802933 
z"/>
<path fill="#E3AF27" opacity="1.000000" stroke="none" 
	d="
M189.960541,226.859970 
	C193.084412,225.181900 196.636276,223.569702 200.554672,221.923767 
	C197.410324,223.568649 193.899429,225.247253 189.960541,226.859970 
z"/>
<path fill="#E3AF27" opacity="1.000000" stroke="none" 
	d="
M234.956497,172.539734 
	C232.288773,171.115845 229.593781,170.279480 226.642426,173.156113 
	C227.710602,169.139877 231.283066,168.682587 234.956497,172.539734 
z"/>
<path fill="#E3AF27" opacity="1.000000" stroke="none" 
	d="
M94.007782,198.335709 
	C95.680946,200.054092 97.327621,202.157852 99.039948,204.592697 
	C95.658279,204.293045 94.010902,202.175308 94.007782,198.335709 
z"/>
<path fill="#E3AF27" opacity="1.000000" stroke="none" 
	d="
M223.272095,204.933731 
	C224.411713,202.730545 225.914322,200.525146 227.698196,198.143677 
	C228.411728,201.461975 226.742157,203.645142 223.272095,204.933731 
z"/>
<path fill="#E3AF27" opacity="1.000000" stroke="none" 
	d="
M228.332642,197.961304 
	C229.093964,195.757996 230.221893,193.533524 231.614685,191.101974 
	C230.819427,193.243317 229.759323,195.591736 228.332642,197.961304 
z"/>
<path fill="#E3AF27" opacity="1.000000" stroke="none" 
	d="
M115.980843,205.688873 
	C114.601044,205.018661 113.244438,203.975113 111.807358,202.621048 
	C113.152588,203.312195 114.578316,204.313858 115.980843,205.688873 
z"/>
<path fill="#E3AF27" opacity="1.000000" stroke="none" 
	d="
M217.926178,193.262909 
	C217.162140,194.834595 216.047424,196.447922 214.626892,198.161514 
	C215.405869,196.609375 216.490677,194.956970 217.926178,193.262909 
z"/>
<path fill="#E3AF27" opacity="1.000000" stroke="none" 
	d="
M94.809128,171.819336 
	C92.850105,171.916321 90.898285,171.619705 88.563599,171.311523 
	C90.392601,171.341888 92.604469,171.383804 94.809128,171.819336 
z"/>
<path fill="#E3AF27" opacity="1.000000" stroke="none" 
	d="
M114.116959,218.219803 
	C115.657715,218.687271 117.203842,219.520355 118.919601,220.637146 
	C117.433609,220.142365 115.777977,219.363892 114.116959,218.219803 
z"/>
<path fill="#E3AF27" opacity="1.000000" stroke="none" 
	d="
M203.278503,220.947037 
	C204.351471,219.924515 205.801041,218.942413 207.584808,217.920624 
	C206.497681,218.916458 205.076385,219.951950 203.278503,220.947037 
z"/>
<path fill="#E3AF27" opacity="1.000000" stroke="none" 
	d="
M213.917877,198.240311 
	C213.141174,199.602646 212.008362,200.884628 210.549042,202.215881 
	C211.335602,200.896744 212.448700,199.528351 213.917877,198.240311 
z"/>
<path fill="#E3AF27" opacity="1.000000" stroke="none" 
	d="
M91.020554,193.322922 
	C92.025810,194.392883 92.995560,195.849808 94.009567,197.638275 
	C93.030899,196.549835 92.007965,195.129852 91.020554,193.322922 
z"/>
<path fill="#E3AF27" opacity="1.000000" stroke="none" 
	d="
M208.272293,217.949020 
	C209.050140,216.964523 210.199768,216.017258 211.670959,215.022614 
	C210.876373,215.978897 209.760223,216.982574 208.272293,217.949020 
z"/>
<path fill="#E3AF27" opacity="1.000000" stroke="none" 
	d="
M111.763580,201.908829 
	C110.740082,201.494888 109.793373,200.711395 108.792694,199.617310 
	C109.772606,200.050888 110.806480,200.795074 111.763580,201.908829 
z"/>
<path fill="#E3AF27" opacity="1.000000" stroke="none" 
	d="
M199.737473,210.054810 
	C199.009109,210.799362 197.917496,211.505722 196.491058,212.228683 
	C197.228882,211.502380 198.301544,210.759506 199.737473,210.054810 
z"/>
<path fill="#E3AF27" opacity="1.000000" stroke="none" 
	d="
M105.914673,195.756866 
	C105.193436,195.379013 104.519012,194.623932 103.788681,193.565247 
	C104.475677,193.967651 105.218590,194.673645 105.914673,195.756866 
z"/>
<path fill="#E3AF27" opacity="1.000000" stroke="none" 
	d="
M213.435791,214.046143 
	C213.821762,213.371063 214.562180,212.687317 215.606628,211.940323 
	C215.203857,212.597229 214.497040,213.317352 213.435791,214.046143 
z"/>
<path fill="#E3AF27" opacity="1.000000" stroke="none" 
	d="
M205.696014,206.025085 
	C205.290817,206.726074 204.518539,207.399445 203.432846,208.114624 
	C203.855927,207.436768 204.592438,206.717117 205.696014,206.025085 
z"/>
<path fill="#E3AF27" opacity="1.000000" stroke="none" 
	d="
M118.893524,207.775146 
	C118.000130,207.634186 117.100708,207.129791 116.072571,206.334717 
	C116.925079,206.499939 117.906288,206.955841 118.893524,207.775146 
z"/>
<path fill="#E3AF27" opacity="1.000000" stroke="none" 
	d="
M207.888168,204.197754 
	C207.710068,204.829498 207.183853,205.408081 206.352890,206.029068 
	C206.545441,205.429169 207.042740,204.786865 207.888168,204.197754 
z"/>
<path fill="#E3AF27" opacity="1.000000" stroke="none" 
	d="
M107.761703,197.906433 
	C107.113976,197.746780 106.533470,197.235840 105.896561,196.426331 
	C106.503067,196.603561 107.166000,197.079346 107.761703,197.906433 
z"/>
<path fill="#E3AF27" opacity="1.000000" stroke="none" 
	d="
M110.047165,215.333099 
	C110.696877,215.403656 111.386597,215.832550 112.250626,216.520325 
	C111.645668,216.416626 110.866417,216.054031 110.047165,215.333099 
z"/>
<path fill="#E3AF27" opacity="1.000000" stroke="none" 
	d="
M119.185715,221.172333 
	C119.611526,221.065094 120.182922,221.237427 120.921669,221.665131 
	C120.503113,221.764297 119.917206,221.608093 119.185715,221.172333 
z"/>
<path fill="#E3AF27" opacity="1.000000" stroke="none" 
	d="
M120.735687,208.952209 
	C120.273643,209.056335 119.720917,208.850189 119.027817,208.374146 
	C119.473297,208.283478 120.059151,208.462708 120.735687,208.952209 
z"/>
<path fill="#E3AF27" opacity="1.000000" stroke="none" 
	d="
M202.797806,208.095215 
	C202.675995,208.495743 202.230316,208.869461 201.481537,209.252747 
	C201.610275,208.864334 202.042114,208.466370 202.797806,208.095215 
z"/>
<path fill="#E3AF27" opacity="1.000000" stroke="none" 
	d="
M108.268539,214.036224 
	C108.723450,213.968582 109.246132,214.211624 109.897247,214.722748 
	C109.462555,214.776199 108.899429,214.561554 108.268539,214.036224 
z"/>
<path fill="#E3AF27" opacity="1.000000" stroke="none" 
	d="
M201.227081,221.935852 
	C201.386475,221.574844 201.862900,221.233871 202.644653,220.885712 
	C202.481369,221.237656 202.012756,221.596771 201.227081,221.935852 
z"/>
<path fill="#E3AF27" opacity="1.000000" stroke="none" 
	d="
M90.076294,191.212158 
	C90.430092,191.384094 90.753441,191.872940 91.077850,192.667450 
	C90.734558,192.491760 90.390205,192.010422 90.076294,191.212158 
z"/>
<path fill="#E3AF27" opacity="1.000000" stroke="none" 
	d="
M113.117592,217.272141 
	C113.310982,217.176010 113.615334,217.307983 114.023727,217.673996 
	C113.828041,217.772095 113.528305,217.636169 113.117592,217.272141 
z"/>
<path fill="#E3AF27" opacity="1.000000" stroke="none" 
	d="
M102.104790,208.191162 
	C102.311073,208.123596 102.599419,208.303970 102.966484,208.734619 
	C102.759087,208.802963 102.472969,208.621048 102.104790,208.191162 
z"/>
<path fill="#E3AF27" opacity="1.000000" stroke="none" 
	d="
M212.209717,214.922714 
	C212.163055,214.726776 212.352982,214.458939 212.790771,214.137711 
	C212.944122,214.419357 212.746689,214.674850 212.209717,214.922714 
z"/>
<path fill="#E3AF27" opacity="1.000000" stroke="none" 
	d="
M107.199318,213.084808 
	C107.440216,212.970825 107.748215,213.124832 108.141739,213.528809 
	C107.906982,213.636795 107.586700,213.494797 107.199318,213.084808 
z"/>
<path fill="#E3AF27" opacity="1.000000" stroke="none" 
	d="
M106.156250,212.132675 
	C106.382401,212.035233 106.688583,212.198059 107.084579,212.612274 
	C106.861694,212.706757 106.548988,212.549850 106.156250,212.132675 
z"/>
<path fill="#E3AF27" opacity="1.000000" stroke="none" 
	d="
M216.143982,211.863312 
	C216.079544,211.649170 216.271622,211.366165 216.718582,211.009644 
	C216.782471,211.222229 216.591492,211.508347 216.143982,211.863312 
z"/>
<path fill="#E3AF27" opacity="1.000000" stroke="none" 
	d="
M105.113708,211.194946 
	C105.323914,211.106232 105.628029,211.266159 106.027756,211.672775 
	C105.818123,211.760849 105.512871,211.602219 105.113708,211.194946 
z"/>
<path fill="#E3AF27" opacity="1.000000" stroke="none" 
	d="
M101.104401,207.196503 
	C101.308861,207.126633 101.599602,207.303375 101.973465,207.728760 
	C101.767960,207.799301 101.479324,207.621216 101.104401,207.196503 
z"/>
<path fill="#E3AF27" opacity="1.000000" stroke="none" 
	d="
M95.731552,172.960876 
	C95.480751,173.045654 95.205879,172.855194 94.863838,172.412872 
	C95.100273,172.335876 95.403885,172.510757 95.731552,172.960876 
z"/>
<path fill="#E3AF27" opacity="1.000000" stroke="none" 
	d="
M108.739944,198.948364 
	C108.476944,199.063904 108.182884,198.904510 107.824730,198.492218 
	C108.076721,198.384018 108.392799,198.528732 108.739944,198.948364 
z"/>
<path fill="#E3AF27" opacity="1.000000" stroke="none" 
	d="
M209.953705,202.255798 
	C210.062164,202.518326 209.895218,202.812027 209.472534,203.166565 
	C209.370651,202.913910 209.524475,202.600433 209.953705,202.255798 
z"/>
<path fill="#E3AF27" opacity="1.000000" stroke="none" 
	d="
M208.944702,203.249451 
	C209.047562,203.505096 208.875443,203.797058 208.448792,204.157303 
	C208.352753,203.912323 208.511230,203.599045 208.944702,203.249451 
z"/>
<path fill="#E3AF27" opacity="1.000000" stroke="none" 
	d="
M99.130920,205.158112 
	C99.346436,205.085205 99.637733,205.267349 100.006729,205.703705 
	C99.791855,205.776321 99.499283,205.594727 99.130920,205.158112 
z"/>
<path fill="#E3AF27" opacity="1.000000" stroke="none" 
	d="
M222.180603,205.884125 
	C222.102478,205.671326 222.274933,205.374039 222.700104,204.995758 
	C222.778931,205.209747 222.605042,205.504700 222.180603,205.884125 
z"/>
<path fill="#E3AF27" opacity="1.000000" stroke="none" 
	d="
M100.118759,206.167877 
	C100.328201,206.103073 100.613174,206.290222 100.973984,206.729858 
	C100.764648,206.794830 100.479477,206.607315 100.118759,206.167877 
z"/>
<path fill="#E3AF27" opacity="1.000000" stroke="none" 
	d="
M221.204681,206.897675 
	C221.130539,206.693649 221.302048,206.399643 221.720459,206.017975 
	C221.795013,206.222748 221.622665,206.515213 221.204681,206.897675 
z"/>
<path fill="#E3AF27" opacity="1.000000" stroke="none" 
	d="
M217.185455,210.893250 
	C217.120239,210.686874 217.305099,210.402542 217.738205,210.038422 
	C217.802811,210.244171 217.619156,210.529739 217.185455,210.893250 
z"/>
<path fill="#E3AF27" opacity="1.000000" stroke="none" 
	d="
M220.206268,207.902924 
	C220.138199,207.700317 220.314850,207.411774 220.739380,207.041168 
	C220.808502,207.245056 220.629745,207.531021 220.206268,207.902924 
z"/>
<path fill="#E3AF27" opacity="1.000000" stroke="none" 
	d="
M219.209625,208.904831 
	C219.141373,208.702347 219.317932,208.414474 219.741516,208.044006 
	C219.810532,208.247421 219.632492,208.533432 219.209625,208.904831 
z"/>
<path fill="#E3AF27" opacity="1.000000" stroke="none" 
	d="
M103.097992,209.200989 
	C103.302788,209.133987 103.589897,209.313583 103.955887,209.742035 
	C103.749947,209.809784 103.465134,209.628677 103.097992,209.200989 
z"/>
<path fill="#E3AF27" opacity="1.000000" stroke="none" 
	d="
M121.850166,209.856369 
	C121.620674,209.976715 121.300797,209.840454 120.888130,209.453461 
	C121.116821,209.335083 121.438301,209.467407 121.850166,209.856369 
z"/>
<path fill="#E3AF27" opacity="1.000000" stroke="none" 
	d="
M200.928940,209.232574 
	C200.996445,209.479385 200.793732,209.753250 200.326965,210.071991 
	C200.261505,209.831116 200.460114,209.545364 200.928940,209.232574 
z"/>
<path fill="#E3AF27" opacity="1.000000" stroke="none" 
	d="
M218.204575,209.903290 
	C218.137161,209.699677 218.315720,209.413071 218.742249,209.045654 
	C218.810318,209.249985 218.630432,209.535141 218.204575,209.903290 
z"/>
<path fill="#E3AF27" opacity="1.000000" stroke="none" 
	d="
M104.096176,210.210907 
	C104.298866,210.139069 104.588676,210.313019 104.966339,210.732513 
	C104.763901,210.804260 104.473602,210.630463 104.096176,210.210907 
z"/>
</svg>